<mxfile host="Electron" modified="2025-02-10T19:15:35.871Z" agent="Mozilla/5.0 (Windows NT 10.0; Win64; x64) AppleWebKit/537.36 (KHTML, like Gecko) draw.io/24.6.4 Chrome/124.0.6367.207 Electron/30.0.6 Safari/537.36" etag="RjiZQPZuOgFba1gfXqvk" version="24.6.4" type="device">
  <diagram name="Page-1" id="58cdce13-f638-feb5-8d6f-7d28b1aa9fa0">
    <mxGraphModel dx="1050" dy="621" grid="1" gridSize="10" guides="1" tooltips="1" connect="1" arrows="1" fold="1" page="1" pageScale="1" pageWidth="1100" pageHeight="850" background="none" math="0" shadow="0">
      <root>
        <mxCell id="0" />
        <mxCell id="1" parent="0" />
        <mxCell id="ZBbDV7YV4FOcDgq-P88l-2" value="ARQUITECTURA" style="swimlane;horizontal=0;whiteSpace=wrap;html=1;" parent="1" vertex="1">
          <mxGeometry x="20" y="110" width="1500" height="900" as="geometry" />
        </mxCell>
        <mxCell id="ZBbDV7YV4FOcDgq-P88l-4" value="" style="swimlane;whiteSpace=wrap;html=1;" parent="ZBbDV7YV4FOcDgq-P88l-2" vertex="1">
          <mxGeometry x="190" y="10" width="1270" height="860" as="geometry" />
        </mxCell>
        <mxCell id="ZBbDV7YV4FOcDgq-P88l-29" value="" style="rounded=1;whiteSpace=wrap;html=1;" parent="ZBbDV7YV4FOcDgq-P88l-4" vertex="1">
          <mxGeometry x="10" y="30" width="580" height="550" as="geometry" />
        </mxCell>
        <mxCell id="ZBbDV7YV4FOcDgq-P88l-32" value="" style="rounded=1;whiteSpace=wrap;html=1;" parent="ZBbDV7YV4FOcDgq-P88l-4" vertex="1">
          <mxGeometry x="329.64" y="60" width="210" height="490" as="geometry" />
        </mxCell>
        <mxCell id="ZBbDV7YV4FOcDgq-P88l-5" value="" style="rounded=1;whiteSpace=wrap;html=1;" parent="ZBbDV7YV4FOcDgq-P88l-4" vertex="1">
          <mxGeometry x="50" y="60" width="210" height="490" as="geometry" />
        </mxCell>
        <mxCell id="ZBbDV7YV4FOcDgq-P88l-21" value="" style="rounded=1;whiteSpace=wrap;html=1;" parent="ZBbDV7YV4FOcDgq-P88l-4" vertex="1">
          <mxGeometry x="83.5" y="510" width="145" height="30" as="geometry" />
        </mxCell>
        <mxCell id="ZBbDV7YV4FOcDgq-P88l-59" style="edgeStyle=orthogonalEdgeStyle;rounded=0;orthogonalLoop=1;jettySize=auto;html=1;exitX=1;exitY=0.5;exitDx=0;exitDy=0;" parent="ZBbDV7YV4FOcDgq-P88l-4" source="ZBbDV7YV4FOcDgq-P88l-24" edge="1">
          <mxGeometry relative="1" as="geometry">
            <mxPoint x="360" y="320" as="targetPoint" />
            <Array as="points">
              <mxPoint x="290" y="455" />
              <mxPoint x="290" y="320" />
            </Array>
          </mxGeometry>
        </mxCell>
        <mxCell id="ZBbDV7YV4FOcDgq-P88l-24" value="" style="rounded=1;whiteSpace=wrap;html=1;" parent="ZBbDV7YV4FOcDgq-P88l-4" vertex="1">
          <mxGeometry x="83.5" y="440" width="145" height="30" as="geometry" />
        </mxCell>
        <mxCell id="ZBbDV7YV4FOcDgq-P88l-25" value="" style="rounded=1;whiteSpace=wrap;html=1;" parent="ZBbDV7YV4FOcDgq-P88l-4" vertex="1">
          <mxGeometry x="83.5" y="475" width="145" height="30" as="geometry" />
        </mxCell>
        <mxCell id="ZBbDV7YV4FOcDgq-P88l-57" style="edgeStyle=orthogonalEdgeStyle;rounded=0;orthogonalLoop=1;jettySize=auto;html=1;entryX=0;entryY=0.5;entryDx=0;entryDy=0;" parent="ZBbDV7YV4FOcDgq-P88l-4" source="ZBbDV7YV4FOcDgq-P88l-7" target="ZBbDV7YV4FOcDgq-P88l-41" edge="1">
          <mxGeometry relative="1" as="geometry" />
        </mxCell>
        <mxCell id="ZBbDV7YV4FOcDgq-P88l-7" value="" style="rounded=1;whiteSpace=wrap;html=1;" parent="ZBbDV7YV4FOcDgq-P88l-4" vertex="1">
          <mxGeometry x="80" y="100" width="151" height="160" as="geometry" />
        </mxCell>
        <mxCell id="ZBbDV7YV4FOcDgq-P88l-8" value="&lt;span style=&quot;color: rgb(15, 20, 26); font-family: &amp;quot;Amazon Ember&amp;quot;, &amp;quot;Helvetica Neue&amp;quot;, Roboto, Arial, sans-serif; font-weight: 700; letter-spacing: -0.3px; text-align: start; text-wrap: wrap; background-color: rgb(255, 255, 255); font-size: 10px;&quot;&gt;PRAGMA_TorneosAPI&lt;/span&gt;" style="text;html=1;align=center;verticalAlign=middle;resizable=0;points=[];autosize=1;strokeColor=none;fillColor=none;" parent="ZBbDV7YV4FOcDgq-P88l-4" vertex="1">
          <mxGeometry x="96" y="100" width="120" height="30" as="geometry" />
        </mxCell>
        <mxCell id="ZBbDV7YV4FOcDgq-P88l-10" value="" style="shape=image;verticalLabelPosition=bottom;labelBackgroundColor=default;verticalAlign=top;aspect=fixed;imageAspect=0;image=data:image/png,iVBORw0KGgoAAAANSUhEUgAAAJsAAADkCAYAAACPFVaYAAAAAXNSR0IArs4c6QAAAARnQU1BAACxjwv8YQUAAAAJcEhZcwAAEnQAABJ0Ad5mH3gAABNcSURBVHhe7d1/UFTnvcfxt3d2BudmhnUi7hoYIBIRDQQhKrHRrAYTTUzEHw1amjLVG6kaEYySmkQ0t/6YaErTWGivCbYh5TY2cJuqiSimGuWW1li4RkOihNSEpWay68RhaZnuTph57h+7C8vhN5IHun5fM2fGfb7Pc47JfOacs0fOl1FKKYUQGvybcUCIb4qETWgjYRPaSNiENhI2oY2ETWgjYRPaSNiENhI2oY2ETWgjYRPaSNiENhI2oY2ETWgjYRPaSNiENhI2oc3ICFtrLUWbtlJ+yVgQwWREhM3x1l7yy8Aaa6yIYDLgsD265DHGjIvodVv5xBrjsl44OfJGNaO/uxCbCcBOkS2CrErjPPGvbsBha2n5u3GoC3vT34xDPbv0GkU1UWSvmuUbuEbjFcMcP08LjkvVVF1y4vIYi34eXM4W3G2dR93X7Vz8Yx2O1s7jgbXG693stNdjenA11VH1gR1H16IwUgN08cM6NXZ8lBozLkKZw8I7bWPGRaix46PUpcv1xmU9uvzCTGVO3qMuK6XU8fVd9plS2KiUUqr5L3vUg+PDlfmOJDXpjnBlDktS2cddvr2cVKvDwtXqn+73zgmbowqvKFX5ZLgyL9mssr81QVnvTFKTIry1ned9y77+RP16RZIyj5+sJiUmqajx4WrSUyfVP33lXo/5jxq1dUa4MkckqUmJ3n1n/8G3UHRrwGFTSqkX9hZ0CYV/e+HFnxin9+zrP6q8iHD1YLEjYNAXnOOB82pU3h3hKvE/a9qDcLlwvjKHrVZl/+hYY12yT52xu1Rzs0v982tf2O7crCq/8u/Hezx/gL8sXqTMyT9S77t99fN7VGLYfFVo78cxj69X5vGbVeXXvqJSSgX+WXQx4MsoQN6mXCbHTTIOc1dCPHlP5RiHe3a2glLPLDLTLMZKZ7VvUeqKJfO70xjtG4pbtZb5VHDidMe06HlLsEWGYjaHMtrkGxwbS9ytvj+bIomO8c92cuJoLeYHZhPtcuJwOnGETyKROi583I9jRkUS3XaUooJT1Psvzf5jim4NKmwmk4ni/UWYTB3/d7sb652H8gMluB/JIL2PrNHswg0dAQK4xYwZuPiZPWBwINy4vgLXG5uxPbjAt+3gXPgsUib145hTtlD125VwMJN7bo8gbuUrnHMFzBVdDCps+M9im3LbPz+9eWO3Z7setVZQfhTSM5a2nzl6ZI3ECp1v+ltduIDECVEBgwNhxRoFozMPUH/hfMBWRtaE/h3TPG8LRy5c5cuPyki/soO0PbUBk4XRoMMGkPdUDg+k3s89M6azeeMGY7lXjoOvcSJkJZnzjBUYDTT6z1htQNIyMiMbKHy5AlcbgIf6/fs4wULmzzUs7rcQbAtm4T6wl+LPAr5JtjpxtfbjmK0d33hHW+4iLrxjF6IHxps4PRpV4X3hatKuD40FpZRSFwrmtH/huO+/vDfz6pM3VPqdAV9Gxs9RW/+387dR/42/X+WT4cp83371efuI97gd81zqTL7vWBGTlTUsXJkjVqsy//eVXo755Zvf847d4f0Wa75zs6psbj+Q6MYoNRyNZS7tZartEOlVfyZ/irHYO/d1J6620ZgtoX1ffvvL04LD5QaTGeutIcZqz8ds8+C67sLdwzrR2bCEreqHMaR9uJ36YyuxGosiaA1L2MTN6Ya+IAgxEBI2oY2ETWgjYRPaSNiENhI2oY2ETWgziuzP5Tmb0GJU89fyUFfoIZdRoY2ETWgjYRPaSNiENhI2oY2ETWgjYRPaSNiENkHyUNfO648vpuiy7+O/x3LvPdN4OHsjD93e+d2AlnMl7HqxhPfq7LSEmImMXUpewRbDvBZqf/Uc235ezV+/chM6NoqEFVvY+8OJHAs8jtHkXN76zUoijeMCgilsxfd/i1en7GbnwxbAQ9PbL7Lr7Wa+f/gSO1K8sxpeTeOB52uJfXw3eQtjCcXJn365g8JTbpa8/j775ocC0PTqAmY/38KKPdtYMtFMy3UnTWdc3F2QQeiZk/y1xbu/mgNZFLOGV1ZP9w6ExjJ3TuzQvYgTZIIqbG+m/5k/POl/adnJ648msz2qmMZfLIQvDpIxLY9rz57mDzmBjeBaOJVzD6uOLOPgp7u51+Td1667Smn8WWrAvK5O5USwir7nCa8gvmezEBkDXGmiCXC+93v+RCrZTxg7DoaSmrOOWE8Jh6oARhM6FviwjgbpgjWkgjds1ys4fAQiU1OJBJo+roGJM4i/xTgRmJhAPPB/l+2AhRV7tjPt0708MDGZjLxXOPWppG4oBFXYGl5czIxpycyYGkN0fBaHErbwynrvmczV6gFTSP/upyau4a1Pz1NRsBTe28Gq+2KY8fhBGgwNBsXABFXYYtcc4OixSo6+e5a/fHSFxndy2s9ksXcmwOUGGoyLAJwOnED87QFNakIsxK/YzsHaq3z4y6W4T+Wx/U1n4CoxQEEVNszjsFgs3s3QDiHSlkokb3H4RNdLovOdg/yJWdzr+1JpFLowlx9MhGsut7EkBiC4wtabyevYkR7CoZxMiqudeGPjwVm9l5Vba4nM2c4Ki3es4aMGnO09cj00vfkir34awr1TB9ueS3BThY1QUl86wyuPOtn1WDJxt0UQfVsMMx77LdZtR6h4NsE3z8VHLy1gxuQYon1zZm+sYfq2cvL8PabFoATJc7YB8rTgdLm9jzluDWiJGqi1BWdrH3PEgNycYRPD4ia6jIrhJmET2kjYhDYSNqGNhE1oI2ET2kjYhDbSWEZoMyTdwl1tYJYn7KIPchkV2kjYhDYSNqGNhE1oI2ET2kjYhDYSNqGNhE1oI2ET2gTXvyC0tXCuZAe7fnWS+lYAC1PTlpG9bg22cIBq8qdmU25cx1KK90FW7u+NhXbp+86za9C/j14QVGFzVfP0g8spboolfWsuaVEhgJMLRysgo4z8uQCnyBqXSdWy3RQ8YglYHEXKdDhXY/d+dFaQ92w1thd2k+abFj19IYnhAUvEwHX6jfGD1Py1cUS/95+ZrMwR69WRZmMl0Em1OixcpRQ2GgudXdmvUsLmqMIrxoK4EUFyz1ZLeWkL1nVrWWQ21sRIERxha7XT6AFbkv9FY3Bfd+Jw+rb2t9u9Gn+3kw2b8tq30rpOZfENCY6wOZ00ArTfN9o5sCSZuHjf9lx1p+lieARH2CbEkgjUf+a7wSeK7KqrNF+7Stlyw1wg+tvbKHypoH3L7Dghim9QcISNBGyz4eLhUziMJTFiBEnYLGQ+n0N0zVZsT5RwsanF26WozUO3Xa5c1zru55xOHE7ffPGNCpKwAUlbqDq2nZSardjunsL4cRGMuS2GrAoLtuTAZ2pQ/3Jax/1cfDJx8c9R1WmG+CYEz0PdQK0tOFrdEGLGau7cFFAMn+AMmxiRgucyKkY8CZvQRsImtJGwCW0kbEIbCZvQRsImtJGwCW0kbEIbCZvQRsImtJGwCW0kbEIbCZvQRsImtJGwCW0kbEKb4Axbay1Fm7ZSfsn3uc1JVdEONmzKo+Ck0zC5e44PKnj7Ayfg5MRP8tiwaQdFp/u3VnQvKMPmeGsv+WVgjfV+ri9YTNqeOqwzU4kbC1DNhtsiiN5Wa1jZ4UJxFpnF3lflx09OxWap48fpc8ivMc4U/TXsYXt0yWOMGRfR67byiTXGZb1wcuSNakZ/dyE2E4Cdd0/aYfFa8pcvZFGSBYhlUW4GGxb40tgrC4mPLCT9mbXMp4V3z/pfhBYDNexha2n5u3GoC3vT34xDPbv0GkU1UWSvmtUx1rnVB2Bh/jMF5M0ODRjz4Gqqo+oDO4bWIGKIDHvYfv6zlzCZTIwaNcpYYtSoUZhMJn5R+FNjqUf1hw/RGLmE9CnGSiA7RbYI7inynaXaGih6OIbou9PI+v5iEu9IZkOlcY24UcMetrsS4sl7Kofu3ihUSpG3KZfJcZOMpe61VXOgyE7Kk6uIax/04G6D0aE999JylGwmvyaVwvor1F84T+PnZ8ifbpxlZkyI9y17MTjDHjagx0D5g9hvZyso9cwi098usqmE5fELKGAlv35mmnG2j4eq07WwLIPMW31DplCsYw3TmEb+6yth71yiv1Pi7ZokBmREhM1kMlG8vwiTqeNN5+7Geueh/EAJ7kcySPd3W7gtg8LfbMdmL6HoSE+PLRw47IBptLFg4OTI/hIa5+3m7ZcyiDaWRZ9GRNjwn8U25bZ/fnrzxm7Pdj1qraD8KKRnLKU9NqYQrEmp2GKg6mxPHf+sWKMAl6uP5jJ1VJ2G6JmpJIZLS4fBGDFhA8h7KocHUu/nnhnT2bxxg7HcK8fB1zgRspLMecZKX0KwLZgFlfspqvPej7md1VR9aJwnbtSICpvJZOJ/3vxvKisOD+DyCWCn/Ne1WNdl+J6tDYw18wBlmU523R/DmHERjH+wBFdU585HYggYOzoPxrB3C/94j0oMm6l2fmwsKKWUW5U9Hq7MK97o++/5D5f6stltHPX66g2VHhau0n/XQ130KSjCdubpCcr80GvqS2PB75P96sHx4crcn7b0XTSqwvu8a80P7VeXh/m/9V/ZTdQyy4PrOphvHcTNfZsHVyuYpdfbDbmJwiaG24j6giCCm4RNaCNhE9pI2IQ2EjahjYRNaDMiw+ZqM46IYDAiwyaCk4RNaCNhE9pI2IQ2EjahjYRNaCNhE9pI2IQ2EjahzYj84cmh3t/A2Sn+zmIK/C23bonFNnMaaRs2smiC76d1T+8gLheKL2zHFri0qYTlj+5j0r7zZH2WyfyXe3qFMIG8d0rJijSOBy85s/XA84UTZuZSsHM3Bc9kMNV1iMyUJJ5+3z/BieMLZ9d3Tds8NH7hxOEB6+y13vU7d1OwLBLHF5Gk+z/vXIvN/wb+zcL4UsJgDPULL0O9v4HzvuTS+eUYh3r1oXBl/sFR78fj65U5bL2qDJihlFLqyn6VEhauVh83jPc0/yYiZ7Z+sxAdA1xpkj4fgyRh66/rFZQfhuh5qdLnY5AkbL2o37OYuKnJxMXHMCYui/K7tlC6oT/dKkV3JGy9iFt3gKp3K6l67yz19VdoPpZD4i3GWaK/JGy9MY/DarF4N+PLzWPMjKaOTz7rPMxVO40kMPVOw7iQsA3atGVkmhvYtekVLrZ6h9zOanb9qAT3lGUsuomen/WXhG2wTNP48bECbJ/swHa7t6v5+PjlFLSuoezQGvkS0Q35F4Qh4L7u9L43EWLGKv1AeiRhE9rIZVRoI2ET2kjYhDYSNqGNhE1oI2ET2kjYhDYSNqGNhE1oI2ET2kjYhDYSNqGNhE1oI2ET2kjYhDYSNqGNhE1oI2ET2siPhfemrYVzJTvY9auT1LcCWJiatozsdWuwhQNUkz81m3LjOpZSvA+ycn9vLLRL33eeXXONo8FNwtYTVzVPP7ic4qZY0rfmkhYVAji5cLQCMsrInwtwiqxxmVQt203BI4G/Uz6KlOlwrsbu/eisIO/Zamwv7CbNNy16+kISwwOW3AwMjWYGZai7Dg31/gbj/WcmK3PEenWk2VgJdFKt7s+vAr+yX6WEzVGFV4yFm4vcs3WrlvLSFqzr1rLIbKyJwZKwdafVTqMHbEkJ7UPu604cTt/m8nSa3vi7nWzYlNe+lfbUbPImJ2HrjtPp7cHWft9o58CSZOLifdtz1Z2mi/6RsHVnQiyJQP1nvht8osiuukrztauULTfMBaK/vY3Clwrat8yOE6IIIGHrVgK22XDx8CkcxpIYNAlbtyxkPp9DdM1WbE+UcLGpxduouc2Dq0vHZsB1reN+zunE4fTNF51I2HqStIWqY9tJqdmK7e4pjB8XwZjbYsiqsGBLDnymBvUvp3Xcz8UnExf/HFWdZgjkoW4/tbbgaHVLl6IbJGET2shlVGgjYRPaSNiENhI2oY2ETWgjYRPaSNiENhI2oY2ETWgjYRPaSNiENhI2oY2ETWgjYRPaSNiENhI2oY2ETWgjYRPayI+Fd8tO8XcWU3DJ99GSwPy7Ekj5j3VkJoQGzOuli9GF7dhO7yAut4G8d0rJ6vI743tbO48T3dZ80oqo30kv67djMw6PABK2btkpsn2L/NA1lP5gurd7UVkJBZUNRK8uo+qFWXhbgPTSxSgtAWtlNmO+V8euc6fJnhBQhj7WWnAcqfG+lY+TI89upWp2wLyo6SxKqutlfQLWgJERw9BoZlCGuuvQUO9v4BpV4X3hyvzkyU6jze+sV9awySrvrH+kjy5Gx9crc4/di/pY2877d+k6r7/rRw65ZxsA8yNryba0UHqo1lgS/SBhG5AEps4Gd5O90xvvN9LF6EbWMgTrdZKwDVCICWh14zIWRN+M19XBGOp7rKHe38B1f8/WPr7BP97HfZPcs3UiZ7aBaDhE6SVYNHeWsSL6QcLWG7ervTNR/cm9pD28l/qk7eSnGfp99NHFqPmrwJqhc2Ufa/t0o+t1Mp7qBmOoL3tDvb+B810uwwK2iJlqUf5R9bk7cJ73UtZpXli4MoetV5XKfxk11vyX5z7Wtuv9Mtr3+pFDHuoKbeQyKrSRsAltJGxCGwmb0EbCJrSRsAltJGxCGwmb0EbCJrQZkn9BEKI/5MwmtJGwCW0kbEIbCZvQRsImtJGwCW0kbEIbCZvQ5v8Bm32LKdlLJEkAAAAASUVORK5CYII=;" parent="ZBbDV7YV4FOcDgq-P88l-4" vertex="1">
          <mxGeometry x="115.21000000000001" y="130" width="81.58" height="120" as="geometry" />
        </mxCell>
        <mxCell id="ZBbDV7YV4FOcDgq-P88l-58" style="edgeStyle=orthogonalEdgeStyle;rounded=0;orthogonalLoop=1;jettySize=auto;html=1;exitX=1;exitY=0.5;exitDx=0;exitDy=0;entryX=0;entryY=0.5;entryDx=0;entryDy=0;" parent="ZBbDV7YV4FOcDgq-P88l-4" source="ZBbDV7YV4FOcDgq-P88l-11" target="ZBbDV7YV4FOcDgq-P88l-46" edge="1">
          <mxGeometry relative="1" as="geometry">
            <Array as="points">
              <mxPoint x="280" y="350" />
              <mxPoint x="280" y="235" />
            </Array>
          </mxGeometry>
        </mxCell>
        <mxCell id="ZBbDV7YV4FOcDgq-P88l-11" value="" style="rounded=1;whiteSpace=wrap;html=1;" parent="ZBbDV7YV4FOcDgq-P88l-4" vertex="1">
          <mxGeometry x="80" y="270" width="150" height="160" as="geometry" />
        </mxCell>
        <mxCell id="ZBbDV7YV4FOcDgq-P88l-12" value="&lt;span style=&quot;color: rgb(15, 20, 26); font-family: &amp;quot;Amazon Ember&amp;quot;, &amp;quot;Helvetica Neue&amp;quot;, Roboto, Arial, sans-serif; font-weight: 700; letter-spacing: -0.3px; text-align: start; text-wrap: wrap; background-color: rgb(255, 255, 255); font-size: 11px;&quot;&gt;PRAGMA_TicketsAPI&lt;/span&gt;" style="text;html=1;align=center;verticalAlign=middle;resizable=0;points=[];autosize=1;strokeColor=none;fillColor=none;" parent="ZBbDV7YV4FOcDgq-P88l-4" vertex="1">
          <mxGeometry x="91" y="270" width="130" height="30" as="geometry" />
        </mxCell>
        <mxCell id="ZBbDV7YV4FOcDgq-P88l-14" value="" style="shape=image;verticalLabelPosition=bottom;labelBackgroundColor=default;verticalAlign=top;aspect=fixed;imageAspect=0;image=data:image/png,iVBORw0KGgoAAAANSUhEUgAAAMUAAAEJCAYAAAAkZeOLAAAAAXNSR0IArs4c6QAAAARnQU1BAACxjwv8YQUAAAAJcEhZcwAAEnQAABJ0Ad5mH3gAABm+SURBVHhe7d1/bNR1vu/xZ28maRMThihMS7u0a5cyVpDCisVdcFSQVkEqcCzXes6cA9EuopRiKUdXCt7LahTswdV291ZLll7rhV2660o91gOmHJlD7wKhQaDHWjDoFDHOmCVM9zZnJjb53j9m2k4/bbFUih36eiTfyHx+fKcm8+r3V+f9ibMsy0JEevw3s0FkrFMoRAwKhYhBoRAxKBQiBoVCxKBQiBgUChGDQiFiUChEDAqFiEGhEDEoFCIGhULEoFCIGBQKEYNCIWJQKEQMCoWIQaEQMSgUIobYCEVnM5Ulm6hrNTuulJ9T9Q14zobMDpEeMREK3zvbKNsLiRlmT7cmiialkLa52ewwtFDxWCEb9/vMDpEeVz0UDy59mPETUy67rXxstTntMvzU724i4dFFuGwA7VS6UijcHz0mgyXFBRTlDpqaq2Cg95Xr0VUPRUfH38ymftrPf2k2Da51F5XHU1m7am6k4Ru854wxOMh5tpzSeeP6Nnd24PP78QWu4HQp1IGvtQlPq5++0wZ6X6ArRKB7fKfZKTHJuspOnW6xbkpKtcZPTLHsE5L7bOMnplg3JaVarZ+2mdMG9elLd1r2WS9bn1qWZf3bU/32mV3htSzLa1Xc1f1vy7KsgLX/6ZnhMT+ZaaUmJVuP/5tlWVaj9XjPHMuyzlRZd01Itu569bT1X99a1qX/+J9WdlKylXjrTGvqrTdb9qQl1pvnLvO+53ZbS34Sfo+pM2ZaqUk5VkV7788usemqh8KyLOulbeX9PkTd20vb/8UcPrhvD1ulKcnWwmpfVGP4gx3+kHfrG4qv38q37BNyrFc+CfYO+dbqG4ozVdbCpGTrrlfPWP9l9b5X/u5AZELA2vv3yZa9qDHyuv/7flFxt2W/r8r6orcp8j4Sy6766RNAaUkxtzinms3cNn0apU+vM5sHd6SB2tBc3HkOs+cy/Bx4pwmWF1OaGd/bbIsacvoN8h7YSvCZjziwPoMEgObwey28Mxg+5fIHScvMgI/P4o2aGi0xOQM+rqF8Twu+7lOt6PeRmDQiobDZbFRXVWKz9X5CBmq7vBB1O2sILi4g/0oyQZDAXwFbgtnRo+2dGjydi9i4KhIIgEsBgjTxwtJcXAvDm3tvgMS5GaT1nd4jYXklR1+/nZMbc3H+KB1XSQO+LnOUxJoRCQXdR4WS4p7XGzesH/DoMajOBureh/yCZb0f3CFJJDEVCAQIml0Rzk3VVMw7jHvhJjyBSGPiZBKZywsfnqDtZNT20nxjdrR4nAWVeL68wNf/90WS9hZSuMdvDpIYM2KhACh9eh33zb+XOXfMZsP6IrP7snx7dnEgfiXuBWYPJADez9vDL/r9Zo7HlTsX9ldRfrQjMibU986QbTruPfW8YK8h7+FtHAsA0+8jz95EeXkTgZ59hvD5I/sY4H2DgY6e4CXcPJWp9p6hEsvMi4zRIXzhPPWF02aHZVmWdbL87p4L97v+18B3nw6V9Y6xT0i2Fv7O2//uU/CM9cp9yZb9vtesT4OWZZ3ZbeXfGh6f+pPwf6e+dHzQ9z36P8J3uBJvnWklTki27PdXWZ/qQjvmxVmjcdGW1m1kud4l3/MXyjLNzivQFSJwMQB2B/aoa+7vErzoJ9AFCUOZF+rAFwhCvJ3E7xwssWBUhsLzz+nknd5C2wcrSTQ7RUbYqAyFyA9pRC+0RWKRQiFiUChEDAqFiEGhEDEoFCIGhULEcE1C0fu3RCKj3zUJhUgsUShEDAqFiEGhEDEoFCIGhULEoFCIGBQKEYNCIWK4Jt+8C3SBfajlnkZEO9WPPER5dyn/GzJw3Xk7eUXrWXJz3+9VB47WUPZyDQdOtxOIt5M2dRllO54xxnVwbOdzlFY0ceavQew3pZJV8AwVz06hPvp9TJnFHPj9ykHrSMnoMGZCUen6GRWZL1K+2AGE8O7bTln9JQr/tZVX5oRHtVXlMWdzM073i5QtzsCOH0/1Vsobg+S/fZTq3HABZ29VLlmbO3Bv30x+hp3ART/ejwJk7yjA/lEjZyJVcY6+WUglq6n9xexww7gMFt4TVYBNRqe+xT1GxqUfvOyLWQLHsizLZ715f7Jl/8X74ZcXdltLJiRb2a+eiRpjhYs1P3mLZU95zjr0rdWzL/uT3TVmB7f/yaGNk9FlDF9TOEhLB86dxwv4Gv+Mh/mUFpprXIwjZ/0anKEa6g4BJGC/CTjdQtsVVPiX2DF2Q3Gxgbp9kLZgPmmA95PjkHEHM24wBwIZ05kBHGttBxy4t28h++w25vx4Fnklb3BAy4VdV8ZUKNpefghn1iyc09IZ7yyk7rZnqC0KHxkudYbAFj+08/2M1Rz44gSeHcugcSsrfp6O85E9tOlP5K8LYyoUzjU78Xy4H8+/H6Gt7RyXPljXc2Rw3jodWs/SZk4C8PvwATNuTu1ti3cwo2AL9Scv4K1ZRrCxlI0qrnxdGFOhwD6RRIcjvN3Y91Zs2t3zSeMd6vb3PxXy1e/Bw1xcd5g9YfbFxRRlEC6fKTFvbIXicjLX8MqKeOqeclN52B+pJh7Cd3gb+b9sJm39FtyOcFtby9modfRCePdsp+JsPK6ZUUcSiVkKRY9x5Lx2iNo8P2XLZpE0MYXxE9NxLvs9Sc/X49k0PTIuwKnyXJxT0iOrvaaTte44c56vo2yesUuJSWPk4d0V6q4kTgL2G8eRMNDP3tmBr/M7xkhMUihEDDp9EjEoFCIGhULEoFCIGBQKEYNCIWJQKEQMCoWIQaEQMSgUIgaFQsSgUIgYFAoRg0IhYlAoRAwKhYhBoRAxjM1QdDZTWbKJuu5CyF1+PJVbKSoppbxxaGVqfB838N7HfsDPgX8ppahkK5UfDW2ujG5jMhS+d7ZRthcSIxUy28ofIu/lFhLvnI/zJoAmiialkLa52ZjZ62R1Ie7qFgCSbpmPy9HCK/l3U3bcHCmxZtSH4sGlD0eqZgy+rXxstTntMvzU724i4dFFuGwA7XzY2A4PPUHZikUsmekAMlhSXEBRrllXdiAOZixeRP6zT5BDBx8eaTcHSIwZ9aHo6Pib2dRP+/kvzabBte6i8ngqa1fN7W3rV//MQc6z5ZTOC5feDwsRON+C5+N2eko+yXVp1IfiN6/vwGazERcXZ3YRFxeHzWbjtxWvml2Datv3Lt7JS8nPNHuitVPpSmFOZeS3ftdZKh9IJ+2neRT+00PM+Mksivabc+R6MepDcdv0aZQ+vY6BKvFYlkVpSTG3OKeaXQPramJnZTvZT67C2dMYItgFCePsfYZG89VsoOz4fCraztF28gTeLw5RFlmHpZed8fFAlw4jsW7UhwIY9IPfHZghO9JAbWgu7jxH+PX5GlZMy6Wclbz17O3m6IgQno+aYXkB7hsjTbZxJN5kDON2yv73Sth2D2mP1OA1uyVmxEQobDYb1VWV2Gy9FdUGaru8EHU7awguLiA/kgkmFVDxf7bgaq+hsn6w26k+fO2A7buK9Pupr6rBu+BF3ttRoHXtYlhMhILuo0JJcc/rjRvWD3j0GFRnA3XvQ37Bst41KGzxJM6cjysdPEfCt1f7SyQxFQgEIkWXB9OC5yNIu3M+M5L7VjSX2BIzoQAofXod982/lzl3zGbD+iKz+7J8e3ZxIH4l7gVmz3eJx5U7F/ZXUdkSvl4I+pvwnDbHyfUipkJhs9n44x/eZn/Dvis4bQJop+6tZhLXFESeTVyZRPdO9rr9vHBvuNJ40sIaAqnd52By3TFXhhwJP/jqqJ+8bM2YcKf1q0/MDsuyrKC19++TLft/3/3dP+f/C1hfXwqarWF/3W3lT0i28v80SL/EjDERikMbb7bs9++yvjY7up2pshYmJVv2CeaywkMRWUJ4QrJlv7/K+vQH/n+V70+l+HuECFwEu7Hs15B0hQh0gt0+jLky6igUIoaYutAWuRYUChGDQiFiUChEDAqFiEGhEDHEZCgCXWaLyNUTk6EQGUkKhYhBoRAxKBQiBoVCxKBQiBgUChGDQiFiUChEDDH5JaOrvb9h6+rgWM1WXvhdI22dAA6y8pazds1qXMkATZRlraXOnMcyql+DwuI/mx098l87wQv3mK1yLSgUwxVoYuPCFVSfzyB/UzF5qfGAn5PvN0DBXsruAThI4UQ3nuUvUr44uvpHKtmz4djxSK1afwOlv2zC9dKLdBcvTJu9iBnJUVPk2jG+sz0irnbhgqu9v+E4+uwtlj3lKav+ktkTrdF6fCjFEM5VWdkT7rYqzpkd8kPQNcWwNFNX20HimidYMnhdZolRCsVwdLbjDYFr5vSepuBFPz5/ZDMWsPD+6VcUlZT2bLWDVeiUUUGhGA6/P1xVvOe6pp2dS2fhnBbZnmvqM1xii0IxHDdnMANo+7x7Ka9U1noucOmbC+xdYYwF0v5uMxU7yns2d+8BRkYhhWJYpuOaB6f2HcRndknMUyiGxYH7+XWkHd+E67EaTp3vCJfp7woRGKhef+Cb3usNvx+fPzJeRiWFYrhmPoPngy1kH9+E66eZJE1MYfykdAobHLhm9a1I3vbrvN7rjWmzcE57Dk+fETKa6OHd1dDZga8zCPF2ElVPNuYpFCIGnT6JGBQKEYNCIWJQKEQMCoWIQaEQMSgUIgaFQsSgUIgYFAoRg0IhYlAoRAwKhYhBoRAxKBQiBoVCxKBQiBgUiquhs5nKkk3UtZodV8b3cQPvfXR26EUNvmrhvfoWVRS5yhSKq8D3zjbK9kJihtlzZU5WF+Le0l02p4miSSmkbW42h/U6XYX7sSpOmu3yvYy5UDy49GHGT0y57LbysdXmtMvwU7+7iYRHF+G6qt8bz2BJcQFFud8zaXLFxlwoOjr+Zjb1037+S7NpcK27qDyeytpVc82egXWFCPjbOdXYRNtl6z85yHm2nNJ54/q0BgPtnDrcgteoVxsWIuD303b4YLgWVZfZHxYM+Al0mq3SbcyF4jev78BmsxEXF2d2ERcXh81m47cVr5pdg2rb9y7eyUvJzwS+qiFnYjobD0cN8O8hr7vtfA05k9Jx3vsQ+SVruXtaJkkP1ITr0vbTTqUrhTmV3aU5oa0qj6QpPyNntZuc2zNxljRGjW+iaFI6aT/PJe+pDSzJziQpq5QDkQ//gadSGL/6dSofSCFpyixydvXuV/oac6G4bfo0Sp9ex0CVfSzLorSkmFucU82ugXU1sbOynewnV+EESF5E/uwQtfW9BZZ99XvwTF7N4/OASQXUf3mBr//zBG0nT/D1B6tJPF7De59H73QQX9VQtLmZnNdbw/M/O8exZ2dHDZjNK59d4NJn4X17Py0nx7+HuuiAvn+Y4Ka/4P2slQOrUqM6JNqYCwUw6Ae/OzBDdqSB2tBc3N3LD+HAXbiI4O4GPF2Erzf+1EzaiuXh0NjiSYiPFE+7GIKbEhnfZ4eDCx5p5BjLcOf3nk7ZHdGLY8STcAMQ6giX5bQn0m/pjPQF5M9LxW4fh/0Gs1O6jclQ2Gw2qqsqsdl6r4wHaru8EHU7awguLiA/qkpmQt5KCqmhthH4qoG647ez9h8jF8tdZ6l8MJ3xU+bguvdOnHdtpa136mX5vjoPQPygP14HB0pmMf5HM3EtvJusKe4B1tqToRiToaD7qFBS3PN644b1Ax49BtXZQN37kF+wjITodttc8t3x1NUfxNvwDscWr8IdWbvOu3MtZZ+v5MD5VtpOnqDtP7aEjyBDkJg8GQgMfoHcuJUVtdOp+OxceN+f1ZJvjpEhGbOhACh9eh33zb+XOXfMZsP6IrP7snx7dnEgfiXuBWYPZP/jatL2bsP9VnPf0HRF3zEK4TtzlktRLRAeM9AdqYQ7F+HiIBXVLeG7SiE/niNRSyJ19Z0VPHt2kAt4+S5jOhQ2m40//uFt9jfsu4LTJoB26t5qJnFNwcDPJjJXsXZ2C6fO9Q1N2vJiloTeIGdyJmmT0sk7HE9W1DTX8gISz25jjuuN/h/o5AJq3y7Aty2XpEkpjP9xLtV/nUxid/+CJyi9+SBFU9JJ+1EKWZvbSdMjjmFRgeXhaN1Glutd8j1/oSzT7PwOXSECFwNgdzCsAuVdIQIXQ8Q7xvU9bYPIc4oA3ODQhfT3oFAMg+ef08k7vYW2D1b2/qaW64ZCIWIY09cUIgNRKEQMCoWIQaEQMSgUIgaFQsSgUIgYFIrIcw+RbgqFiEGhEDEoFCIGhULEoFCIGBQKEYNCIWJQKEQMCoWIQaEYFdqpfmQWzqzI9vMVFJZs473P+9eLDRytoWjZPTinpJM0bRZzlm0dYFwHx3auxZU1i6QfZeLMymXFywfxme9jbo8MVsJzbNHXUUdgf1eunUrXz6jIfJHyxQ4ghHffdsrqL1H4r628Mic8qq0qjzmbm3G6X6RscQZ2/Hiqt1LeGCT/7aNU54arB3qrcsna3IF7+2byM+wELvrxfhQge0cB9o8aOdMR3t/RNwupZDW1v4iU3xyXwcJ7MgYoiDDGWNfApW/Nlu9ntO/vynmtiruSrewKb1Sbz3rz/mTL/ov3wy8v7LaWTEi2sl89EzXGsiwrYO1/8hbLnvKcdehbq2df9icbjXH97X9yaOPGGp0+jVoO0tKBc+fxAr7GP+NhPqWFZjGnceSsX4MzVEPdIYAE7DcBp1toM8+qZEgUitHqYgN1+yBtwXzSAO8nxyHjDmYMVM8pYzozgGOt7eEiz9u3kH12G3N+PIu8kjc4cFbpuBIKxSjS9vJD4QveaemMdxZSd9sz1BaFjwyXOkPhquXmpIFkrObAFyfw7FgWrjH783Scj+yhTX8iPyQKxSjiXLMTz4f78fz7EdraznHpg3U9RwbnrdOh9ezAVcr9PnzAjJuj1pyIdzCjYAv1Jy/grVlGsLGUjXv80bNkEArFaGKfSKLDEd5u7FtTM+3u+aTxDnX7+58K+er34GEurjvMnjD74mKKMsAXGKh0s5gUiliRuYZXVsRT95SbysP+SGXyEL7D28j/ZTNp67fgdoTb2lrO4utZEy+Ed892Ks7G45qp1YuGQqGIGePIee0QtXl+ypbNImliCuMnpuNc9nuSnq/Hs2l6ZFyAU+W5OKekR1Z7TSdr3XHmPF9H2TxjlzIgPbwbgf2NuFBH5FQoAfuN40gY6Gfv7MDX+R1jZEAKxQjsT2KbTp9EDAqFiEGhEDEoFCIGhULEoFCIGBQKEYNCIWJQKNCDO+lLoRAxKBQiBoVCxKBQiBgUChGDQiFiUChEDAqFiEGhuBo6m6ks2URdq9khsUihuAp872yjbC8kmhUtJSaNuVA8uPThSJWLwbeVj602p12Gn/rdTSQ8ugiX/lzkujDmQtHR8TezqZ/281+aTYNr3UXl8VTWrprb0xQMtHPqcAventpLAwkR8HcQVCnLUWfMheI3r+/AZrMRFxdndhEXF4fNZuO3Fa+aXYNq2/cu3slLyc+MvK7KI2nKz8hZ7Sbn9kycD+TinLiWAwAcpHBiCoW/foOcSemkTctj5/m++5Mf3pgLxW3Tp1H69DoGquxjWRalJcXc4pxqdg2sq4mdle1kP7kKJ8BXNRRtbibn9Va+/s8TtH12jmOPOvAZ0947FKLsWCvez+p5fLLRKT+4MRcKYNAPfndghuxIA7WhubjzHAD4Ghs4xjLc+eEVhQDsDnvUhLC0BUtxTR6H3a4iZaPRmAyFzWajuqoSm633EzlQ2+WFqNtZQ3BxAfnhTBAMhKt6xw91FzIqjclQ0H1UKCnueb1xw/oBjx6D6myg7n3IL1jWs2ZEYvJkIECg0xgrMWXMhgKg9Ol13Df/XubcMZsN64vM7svy7dnFgfiVuBf0tiXcuQgXB6mobgnfVQr58RxpiZ4mMWBMh8Jms/HHP7zN/oZ9V3DaBNBO3VvNJK4p6PtsIrmA2rcL8G3LJWlSCuN/nEu1MhFzVGB5OFq3keV6l3zPXyiL3IrtoytE4GKIeMc4EvavZfw/wN5vKskxx8moNKaPFMPl2fUG3tmrKRwoEAC2eOyOcUNbn05GHYViGFzbz3Hpg5Ukmh0DiXeQmOxQQGKITp9EDDpSiBgUChGDQiFiUChEDAqFiEGhEDEoFJFbvCLdFAoRg0IhYlAoRAwKhYhBoRAxKBQiBoVCxKBQiBgUChGDvmQ0Avsbtq4OjtVs5YXfNdLWCeAgK285a9esxpUM0ERZ1lrqzHkso/o1KCz+s9nRI/+1E7xwj9kqA1EoRmB/wxJoYuPCFVSfzyB/UzF5qfGAn5PvN0DBXsruIVKL1o1n+YuUL45UYAMglezZcOx4e/ilv4HSXzbheulFIsULSZu9iBnJUVNkcNY1cOlbs+X7Ge37G46jz95i2VOesuovmT3RGq3HJyRb2RVes6Ovc1VW9oS7rYpzZocMha4pRoVm6mo7SFzzBEv6l56Va0yhGA062/GGwDVzek9T8KIfnz+yGetceP/0K4pKSnu2WhVcu6oUitHA78cL0HNd087OpbNwTotszzX1GS4jS6EYDW7OYAbQ9nnkQplU1noucOmbC+xdYYwF0v5uMxU7yns2d+8BRq4ChWJUmI5rHpzad7DfAi9y7SkUo4ID9/PrSDu+CddjNZw630GQSE3aoDkWCHzTe73h9+PzR8bLVaFQjBYzn8HzwRayj2/C9dNMkiamMH5SOoUNDlyzop9JQNuv83qvN6bNwjntOTx9Rsj3oYd3I7C/762zA19nEOLtJNrjzV4ZYQrFCOxPYptOn0QMCoWIQaEQMSgUIgaFQsSgUIgYFAoRg0IhYrgmD+9EYomOFCIGhULEoFCIGBQKEYNCIWJQKEQMCoWIQaEQMSgUIgaFQsSgUIgY/j8KNQueYyjB3wAAAABJRU5ErkJggg==;" parent="ZBbDV7YV4FOcDgq-P88l-4" vertex="1">
          <mxGeometry x="106" y="290" width="96.64" height="130" as="geometry" />
        </mxCell>
        <mxCell id="ZBbDV7YV4FOcDgq-P88l-16" value="&lt;div style=&quot;text-align: start;&quot;&gt;&lt;b style=&quot;background-color: initial; text-wrap: wrap; color: rgb(15, 20, 26); font-family: &amp;quot;Amazon Ember&amp;quot;, &amp;quot;Helvetica Neue&amp;quot;, Roboto, Arial, sans-serif; font-size: 10px; letter-spacing: -0.3px;&quot;&gt;PRAGMA_NotificacionesAPI&lt;/b&gt;&lt;br&gt;&lt;/div&gt;" style="text;html=1;align=center;verticalAlign=middle;resizable=0;points=[];autosize=1;strokeColor=none;fillColor=none;" parent="ZBbDV7YV4FOcDgq-P88l-4" vertex="1">
          <mxGeometry x="81" y="510" width="150" height="30" as="geometry" />
        </mxCell>
        <mxCell id="ZBbDV7YV4FOcDgq-P88l-20" value="&lt;div style=&quot;text-align: start;&quot;&gt;&lt;span style=&quot;background-color: initial; font-size: 10px; letter-spacing: -0.3px; text-wrap: wrap;&quot;&gt;&lt;font face=&quot;Amazon Ember, Helvetica Neue, Roboto, Arial, sans-serif&quot; color=&quot;#0f141a&quot;&gt;&lt;b&gt;PRAGMA_VistasAPI&lt;/b&gt;&lt;/font&gt;&lt;/span&gt;&lt;/div&gt;" style="text;html=1;align=center;verticalAlign=middle;resizable=0;points=[];autosize=1;strokeColor=none;fillColor=none;" parent="ZBbDV7YV4FOcDgq-P88l-4" vertex="1">
          <mxGeometry x="101" y="440" width="110" height="30" as="geometry" />
        </mxCell>
        <mxCell id="ZBbDV7YV4FOcDgq-P88l-22" value="&lt;div style=&quot;text-align: start;&quot;&gt;&lt;b style=&quot;color: rgb(15, 20, 26); font-family: &amp;quot;Amazon Ember&amp;quot;, &amp;quot;Helvetica Neue&amp;quot;, Roboto, Arial, sans-serif; font-size: 10px; letter-spacing: -0.3px; text-wrap: wrap;&quot;&gt;PRAGMA_MonitoreoAPI&lt;/b&gt;&lt;br&gt;&lt;/div&gt;" style="text;html=1;align=center;verticalAlign=middle;resizable=0;points=[];autosize=1;strokeColor=none;fillColor=none;" parent="ZBbDV7YV4FOcDgq-P88l-4" vertex="1">
          <mxGeometry x="91" y="475" width="130" height="30" as="geometry" />
        </mxCell>
        <mxCell id="ZBbDV7YV4FOcDgq-P88l-27" value="" style="shape=image;verticalLabelPosition=bottom;labelBackgroundColor=default;verticalAlign=top;aspect=fixed;imageAspect=0;image=data:image/png,iVBORw0KGgoAAAANSUhEUgAAAGUAAAAfCAYAAAD+xQNoAAAAAXNSR0IArs4c6QAAAARnQU1BAACxjwv8YQUAAAAJcEhZcwAAEnQAABJ0Ad5mH3gAAAlQSURBVGhD7Zl/UJR1Hsdfy8IuUJC1a46LWPywFbgovDU0fgWJt94qZxRqt85pzVyH3V1MR9g4YOMp10xYIXOXkFeYd5mF5Hnojhh6jmEFSC1B/qDLHyU/xlymFA+F2Oe5P55nl2cfl7z+uJGZ9jWzPPt8Pu/v98vs5/l8P9/v99HcHn2XSIAJRZDaEODGEwjKBCQQlAlIICgTkEBQJiAaf6uvGZNyuG/KCsJDJhEUpCVIE0RQkPTRarRogjRoNVqvTfIrdPL16ncXafyikvbeXeohAnwPfjNlltGOThuBIIqIooAgCoiigCh4vosIsl3w+S7rZE1YyCSsM/6g7j7AdfAblJCgmxEEN4Lgxi0I3qtbFHALbtyCG0EQvD7Be5V1wpguLDhS3X2A6+A3KFJ2iIoskDLmLksYMcmh3kzxZJEgCiQ+oMcwXeubWXLbAD8Mv0HxPOVSRriJMATxy7UmHvyVgWkJetxuhd8tZcWdySEs+N1NZK0MIyTUky2SL8APQ3vTLYZ1amPSrQ+hATQaQAOFL8ZxtPFbTnUMET0zlK+OX+H26TqGLwvcZgpBFxpEUnoY+zZfwjgtmPjZOk59/B3IfRw+u0U9hEweRRvsZBq7+fD4oNeauqKEokes5OZkk5tmZjKDdH05IDnn2Cn9jZW4Kx/S0TPWk5KEvEKKluexICebzKQIhvq76b2kVk1cxs8U0VMzBIJDNHx8YAARgZi7wzFOC2H2zyMJjdQwc24o0YkhGKeHIAgCXYeGCNZrfGrMeEStLuAJm5WV+XaiFPaE+63YsmeTYDaTMOsXlLz4dz56VdbEpbHQZiUzTtHASxob6pqpL7Mzb5aZBLOZ1PwSKtbY1UIVJjbsaKZ+jdp+Y/AbFEFeaXnqAxrk2iDS/t63nOq8zLsv96MNhpY9F+k4OMiXn11FFEVEBMBTj6Ra5B8TK1PMuDo6cZnTKJqjcn/9AYuWLGVR/gJS/tpJ6OzllNlUGhX5m8rIn97HrmcymGtbyqIlS5mfk0HWk9u9moRMKzabFds8i+JByCbKpEev9xokoi3k2qzYbGkkqFzXxdvWSmai2vn9+A+KXCfcghu3240oivK9HCjBzdR4HcvXmZg0RStpBFnjFqWFgNuTKePUlDmFZJn7cG6pwdlv4t48i1oxRtcAF9Chn6R2KLGSm2Tg0qcNrH1f7ZMorWvmredLWP1kEWXPb2ZvXRmplFB/pJDUCIi1NuM8spvqZYD9Bd7buZn1Tz5GUXEl9U2VrORxth9pY886k9Rh2Tsc++QgtSukW9umfRxrqiR/WSWHd1ZSUVxIUXEp1W8epNaexiZHG843Cr3/T2rFbknvtUj4D4rPvkMEETlzREREYpLDWfzUVGpLv6Ln8yFJh+jNLtGnD/+rr9S8ZKL6u9nR0s6OY31EzbbjkwjaCOmJthVQWmghaugMLWMPvB8M6HXg6pdFc+yUblhPxYb1VKyxkwr8aUkGKekPkmVbwNytnRB/NwvZyCPpNbQOwunGDFLSF7PqbQsVS7LRHy1nrm0p83OqaNVZyF1Vy+HPh4k1FwBQFG/i0rcQl2IFLOTOMOA6tp9dbz9N1pwMUnIWMz/naZr6I0hIM7HxcDe6eAtFAFh4NMlEr3M76q21/6B49x5SxoiAWxEkjVZEowGRsb2KKIKAlC2iKPrsY67FysrZJlynOzHarBg/PYPLMJOFeQrJ1PspX1NK+ZqnWBjZyRvlzzHeckGJXis/xYYYEs1mEizZ2Kzy9JNYQOmfX2NP3WtUJ0aoWioxY5wEulg7e+reYU9dAQlheiKnwJaj3YxE300Rdu6JGaC18QyRM7JJjbYSN3WA402NgAnbqvXUvvkO9a8WMFkHaHX0Vhyig2QyioE5BSRO7aNjV7t68HGCotili3ItEQUBRGlqOnn0InUvn+OxDXdgmqH31htRkDJGqimKmqQm72ckGiAypVD64VdZiBw1cK9NUZB79pOSnkFKegZz859mY2Ofsgc/dHPpMkTFywsCRzn2JUtZ1Oppl0d1VQkLjX0c2LWfk8O+ra9lmN6PtlKzbSs122oo/+OzlL8OVLdznBjuKbYQN3KGpoqz9Ey+k4WPmokdOMleB0QVv0D5Y8nQuZ+trS5Fn7W86xwgwVJC/rJkoro/oKpF4ZbxGxTP/kSQ9yNemxwkt+Dm7IlBXis9xYWeK1KmyIFQajz7GDX5uTMxnmukUP7RU9IzKDzQR2RSNk+oxf8z7Wz8VzcjZitVZXl+CnMy0wyDnGh8jqq3d/Je/4haMJZlHKJ3QE/cTDOnHY04HI04HN1IK/Aa2r7QkfKQhcjebhw0cuqCiczcO+l1bscB5N5lQtffydqKWhxNXVwYHRtjV9NJXHFpFCbdTMf7G+kdc3nxGxT1jl4Ux2ypViNxyTfz6Oo7GBl2k7bYwKzcW4hNDkcQPHVF0nvOynx5nIdTDPQea6BVYW1t6KQ33EzWrxXGH0jvS8+y0eEiKq+M+k/acLa0cSwvhpEBFxdopOMLHam/bcZ5pJnaHCNXvS0PceLcMFG23Thb9lG7rI+1mxroibdT3yLpnW2vU5YmqatauyFcz6muGqCdpn9fxmgY4Lg8Fb3xfieuqVb2HmnGuaOIxGDvQNCwndZ+E1Fh3RyuVtgV+D0lftBQiVZx+rvub/dxsK6X70ZE7kkz8I/qr5hsCuP82WGMplBGR2BZyXT++Zd+fpp7GxG3BrO76mvvifErTqt6iP87CZlWYnUuOg60+zyNCZlWpl3ppOno9aZDABOp85Ix6gc57fiAE2r39xFtITdZT8817UyU7tjNfFc5Wb9v8PF48BuUnNte8jmSn2wKZ/kzZiabwnAeHsCx9dw1R/crnotlyh2hnPlsiAPbXIwMid72mzsWqIf4UZK6ooSHk5LJeCCC5qcWs9pPPWG8Y5bp+nnS+Yr8d2hwlLam87j6rvLN18Nc6BlLfOSQBodoadk7QPv+bxgd8Z2yPj7/ls/9j5Vp85bz8E+ga+crFDecU7u9+M2UjFteUExf47/E8rz0UtuUem1QEFu6lGvdANfDb6EfHr00tqP3eW+ifHcyto9xq87KlPr/jHyj7j7AdfAblLPD+xhxX/aeXSnfm3h26crlr6A6K/Os1K6MXqTt/DZ19wGug9/pK8CNxW+mBLixBIIyAQkEZQISCMoE5L+Na/1JizQmqAAAAABJRU5ErkJggg==;" parent="ZBbDV7YV4FOcDgq-P88l-4" vertex="1">
          <mxGeometry x="105" y="65" width="101" height="31" as="geometry" />
        </mxCell>
        <mxCell id="ZBbDV7YV4FOcDgq-P88l-28" value="" style="shape=image;verticalLabelPosition=bottom;labelBackgroundColor=default;verticalAlign=top;aspect=fixed;imageAspect=0;image=data:image/png,iVBORw0KGgoAAAANSUhEUgAAACoAAAAhCAYAAACvBDmYAAAAAXNSR0IArs4c6QAAAARnQU1BAACxjwv8YQUAAAAJcEhZcwAAEnQAABJ0Ad5mH3gAAAWMSURBVFhH7ZV5TJNnGMB/PaQBHTg6xQMqggjzwgGllIK4qVPnkcxb8ZrTeY1MY8yOZEan07E5yeaVuc3oCMopKgbxnHhQaEFAoFirTKFcHqCoy2AU9gdQoVqZCzEu4ffP1zzf87zfL32f93kFPV0GNvI/QGgZeFXpFO1oOkU7mk7RjsaqqEAgYNb0KcQf3IcuW42xqIBjidH4+gwHQCH3JTE2kpEjgsw1QqGQn3Zs48dt37RaCca8M5LE2Ei8PD0AWLQglBPHEjAWFZCrvcC+n3fi3LdPmxpLBNYG/uBBXpxNOcI1w3VSL6bRQypl/NjRCAQClCFjMZlM5GjO83vqRWbN+xAAL08PUk8dA0CuGkVxiRGAxNhIFHJfBg0PYOb0KXy17nO0WdmoM7R0d7DHrb8rUdHxHDqc1MahNWLLQAv6awaG+Ki4c/euOaYKVHAo+jcWzp/Dpi1bybmST2CAHLFYRH29CZVSQVl5BVLH11Eq5BSXGJFIJMj9fLikzuD+gxoWzJ3Nnbt3mTx1Dg0NDW2++Tysbn19vamNJEDulXwAZM59ATh5+iwSiQTvYUMBUPj7oU7XkpWdS4C/X1NM7ksXsZjklFMAGEtL6e7gwKQJ4xCJROa128OqKMCbXgPZ8OVnJETvJzE2ku3bwgEQCJvKUk6eASBIqTA/0zWZZGgy8Zf7AhAcpATg+InTAKzfFM5ftbXs2RlBweU0tmxch1PPHrSHVdERQYGcO5lESLCKvHwdaWoNukI9AI3NW1agu0pZWTnKAH/c3VyRSh1RZ2hJ12QxwL0/b0ilBCkV5OTmUVF5GwBdoR5veTALl6zk3PmLzAudiTr1JCHBqjbft8SqaNiKJTQ2NjLh/Zms3xTOdxHb2bXnV2huixaST5xGIfclKFBJVVU1hus30GZdxmQyMWbUSIZ7DyUpOaXVyvD48Z8cP3GaZWFrmDRlNjY2Xfh4+eI2OZZYFbWxsQFAJHzSR4s/mA9A9+4O5tipM+ews7Nl6eKFaDIvQ7NIvu4qYSs+QigUmrcdQObibP4NUFFRCQIBYpHVcw3PE42JO4RAIGDX9q2sXR1G/MF9hM6aRnlFJcGqAKRSRwAupaXz8NEj3N1cSddkmuszNJm4u7liuH6DG0U3zfHUU8c4mnCAyL27+f6bjVw4m4xYJCIqJs6c8yxEXR2k6y2DAHkFhVzVG/D0GEDv3k7k5OYTtvpTMjSZaLOy0Tb/ew0NDZSXV6Ir1JNwOImahw8BKK+o4N69KmLiEin644lofoEOD3c37O3teTskGL3ewIzQRVxMSzfnPAurA/9Vw+rWvyykUkcClf4E+PshFlufq0+JSiQS5s6ZgUQisXzVofj7+ZByNA5dtprEmEiOxEdRbMjDpfkyseQp0draWgDSzqWwctli7OxsLVM6hMrbd5g6ewFOMk+cZJ7s2P0LIpHI6m31zMN0Ja+AS+oM1n2xllVhy+ndy4m6ujqMpWU0NnZMS9vZ2jJ54njWrFpJibEMoVCA71vebP42wjIV2jtM3bp15YetW5j43lgAqqvvczgpmazLOeQV6DBcL8JkejL828N76GBGjxrJuHdHMWzIYO4/qGHD1+EcjElge0Q4N28VszVih2UZtCfaQkiwik9WLkUV2HSnt1BXV4euUM+t4hKKjaUYjaXcvFWCg/1ruLj0xcXZGee+fegna3ra2ja10d/19UQdjGNz+DYe1NQgkUg4Gh/F5Gmh5taz5F+JtuDrM5w5M6YSpArAtZ/M8nW7FJcY2bs/igPR8TyoqTHHPQd60GAyYbhR1Ca/NS8k2ppeTj0JUgUwyMuTfjIXevdyQiZzRuroSM3DR1RXV3PvXhVX9QaysnPI0Ga1uaFelP8s+rJ5ajy9qnSKdjSdoh3NP4CFCx4p9WghAAAAAElFTkSuQmCC;" parent="ZBbDV7YV4FOcDgq-P88l-4" vertex="1">
          <mxGeometry x="420" width="29.27" height="23" as="geometry" />
        </mxCell>
        <mxCell id="ZBbDV7YV4FOcDgq-P88l-30" value="&lt;span style=&quot;color: rgb(15, 20, 26); font-family: &amp;quot;Amazon Ember&amp;quot;, &amp;quot;Helvetica Neue&amp;quot;, Roboto, Arial, sans-serif; font-weight: 700; letter-spacing: -0.3px; text-align: start; text-wrap: wrap; background-color: rgb(255, 255, 255);&quot;&gt;&lt;font style=&quot;font-size: 14px;&quot;&gt;INTEGRACIÓN&lt;/font&gt;&lt;/span&gt;" style="text;html=1;align=center;verticalAlign=middle;resizable=0;points=[];autosize=1;strokeColor=none;fillColor=none;" parent="ZBbDV7YV4FOcDgq-P88l-4" vertex="1">
          <mxGeometry x="231.5" y="30" width="120" height="30" as="geometry" />
        </mxCell>
        <mxCell id="ZBbDV7YV4FOcDgq-P88l-31" value="" style="shape=image;verticalLabelPosition=bottom;labelBackgroundColor=default;verticalAlign=top;aspect=fixed;imageAspect=0;image=data:image/png,iVBORw0KGgoAAAANSUhEUgAAAEYAAAAbCAYAAADBPvmtAAAAAXNSR0IArs4c6QAAAARnQU1BAACxjwv8YQUAAAAJcEhZcwAAEnQAABJ0Ad5mH3gAAAaISURBVFhH7Zl/TJT3Hcdf3+fOOw64E+THBnhNGQ6FbdojWjHADQXs2WuMpXW20zarS1Y1ndZpu7Vq0rU1y0pdS3R2bVI0mVSppkl/2KhgaznNkJJhmaVxkW5rKTpP0OMqcgf3fPfHc3fcPcCCS5eMhVfyTZ77fL7f55M8z+f7/ny+z4lMe75kilEoesMUGlMPZhymHsw4iEx7vlyee5PHHf3MsIQQikRRJEIBISSKQoxNsysi5lqR0Xl9gwo7T6VzqMOmjzPpUAA2zvWTYpJIKUAKpBoeUjdUAVG7MmrODIvK9sW9+hiTEgXANk1FVQkPgaoKpApSFZotBGpIs0fmaX6dPQSpCSF9jEmJyLTny9b7rmhbI2brJDruJ/HOtQgBIEFA8PybDJ17PTxPt50UiRDa9cyaPH2cSYcCkYyIZIw2DBlzCH5+Gn/TTm58sJOB5hexOJ9GCkvcvPiM0n7/P6AAMTqhjGiJVJBSAgpDV7oI/PUkgc63MRX9NEZzlBjNGdGlURSvZttz66jW278RVvLKUQ9HntLbx2bbAQ8nXl6pN49Cy5iwnsgYjQn842NM3ykj+a5fY7v390gVBjy1JBQ/hoopTm/0mjOKvBLucS/Gobd/I5gwJ5sxm/X2sUlINGO1mPTmUcRnTLgaIQUDnx7nyl433j2VGFLsGLMcDF/vZujvHhLmrYmpSApSja9Qt4R9PlVuF263C2eh3gkUluB2u3A7Z8f9rlqQrZ9JgXPs++QsWDzOmmwWVmprovcPIzLt+bJ52dWo6Mb1KQaBdcEDEBokcd4KrtWvYVrmLFIfPkzfbgeC0Jh9zqw9t8cFYfVe/rQljaaiVeyItT/wEh89Ph/bQC9e0shJCXJ2VwVr6+G5t1qpTvPTbzCRAJgSg3x1CTKmm8BoxmTqpfmZZax/ZzV1H23CgR8MYZ/SS3PtMtbXw8LtDfyhOhcGAkAQjFYGP6ll0aNBXmncSLEliNcHGRlWBttqWbShHkYyJlZbRt58UtEqUqt/R7CnE+O3CjFkzGHYe5GhS+cxf29ljDaNZBzqLWTMoc38sLgMx5IVLF2ymcZLVgpKRvZ/f1c995eW4SjVfNbuOhylZTiKaznrT2Nm0citvM0bwr4VvNGVhvO+7eSwlo2uXLxNmzVf6UM0/jOy4jDrq8pwlFaw1F3BulM92OaU8OOwN6ox2hDR6iQxYit/jCv71mCt2Er/h7Ukl29FVQX+pt+Q6NyKlIquKmm6M3Gyca9/lroDDRx5dSUZJrS3HmEowFcAtOEPjJjHIhC6EL7qYf/FHkjLpsp+OxmJfro/ORP1BWLarBzXOl549Y+8e2AvD2aawQCR6NpZSdUqTOzbT16wioHOkwx0foghKZ3A31ox55WhTL+NocufEfL1YMq/W9OUuMyZ+PErZ8tvef6RudBxnH1nr+rd/13sm6h9Zi130MG7B9vw6ty6jAkPaSCl4udca9qDqsLNrhbMsyvxNe0iuXwLqgr+D2pIKv9lfP8T7ocmSlV+NqZLHex4oY6jjX/BO6yfMXFsyS5yACjhiaJsgl9eYP+XF+j2WylwrtZ8dhdWS3iBczY5ph7OPV/Da0ePcU73XsaoSgq2hau4cb6JYX8fwmjBuughvm59E39LPZbCu1CSswh83oIMBUl79CSJpb+YQFXKpfrPrXwaHQ3kNXdwNcvFe6c9tB/cRKFRv2bimArWcaTFQ3vrS1SZOnjjtVqgnh11bQQdmzjR4qH9cEyM+jOc683GfdhD++kGniyIv5/ItOfLE04fiiF8JDAayHv2FF/sWoH6tZcZlT9jWvpt9L31NEKRpFRuxDD92/je+RXG1CwsBUtJmFWOr+Fh7USuSL6/b2Z8lH+HfT5Vc810Hz3DZ3rfrWKfT1Wun8bmiN5EmI2z0kpXU1tYsyJks7ByLuaeYzR3xjm0B3O8rD9abmc4H2T6ncvpPbYboUiyHtlNd40L1X8ZISQGSxIzt31Mb8MGCAUwZeZh/m45vkM/CZdryQ/2a0k9mYnXmJBASUpFTEsgffkTpN/zJL4zBwn2XY5qyfDNG1w/XoNtyRZsS5/CcsePGLzo+Y805n8ZkWnPl+8v8o/ZqI36UCUkikGzx52sdfPmHdB3mJMPBeB6IPbcI1BDke8x+ooV0+dEz1bxo3fAoI8xKVEA6r5IwBeM72PiqswYfU5sFdNO4oJrNw283D75P2sS2Up64xRT/xKMy9SDGYd/AWzfWhjZunsTAAAAAElFTkSuQmCC;" parent="ZBbDV7YV4FOcDgq-P88l-4" vertex="1">
          <mxGeometry x="400.93999999999994" y="67.5" width="67.41" height="26" as="geometry" />
        </mxCell>
        <mxCell id="ZBbDV7YV4FOcDgq-P88l-33" value="" style="rounded=1;whiteSpace=wrap;html=1;" parent="ZBbDV7YV4FOcDgq-P88l-4" vertex="1">
          <mxGeometry x="51" y="590" width="210" height="260" as="geometry" />
        </mxCell>
        <mxCell id="ZBbDV7YV4FOcDgq-P88l-34" value="" style="shape=image;verticalLabelPosition=bottom;labelBackgroundColor=default;verticalAlign=top;aspect=fixed;imageAspect=0;image=data:image/png,iVBORw0KGgoAAAANSUhEUgAAAEsAAAAcCAYAAAApxUKlAAAAAXNSR0IArs4c6QAAAARnQU1BAACxjwv8YQUAAAAJcEhZcwAAEnQAABJ0Ad5mH3gAAAb0SURBVGhD7Zh/TNT3Gcdfn+/BHT8CBQ90uxu2oJOijRnuqDhAY6bNNecIIXasmnTo1gmuis0Cdlb3Q2B23DplM2CbzplFnLXWVVKzplpR0A0oq9OsKl0tWuWAAQMF4Q563+/+uB9+73uHKzNdQsIr98kdz/N5nsCb5/N8nvuKmUnzFKb5XEhawzQTMy3WJJgWaxIIbc9apdezKSqCGTodkiQQkhTwLonAnwPsOoHw+gdkmUpHL4f7B9XppzRBlbXREM5DgKIogUv2LkVBnsjufVcUhXidju2mmdr0U5ogsWIVkGX53nJ7l9rms2ttGn+cJLTppzRBx7ApOsp/rAzz5mJ8sQyBwPvC9yHAJrweAWN7a1E+vYHkPZ5Jlz5Sp5/SBIl1NiLC34u+VFXB2OWrjH/0TyQhEEIgJN+7hCTw9yiEIHzeV9HNScH18q/9Yj38j4/V6ac0QWKdMRj8Ypl2VzHSdB53d7dHLEkQW/gMuriHUJyugAoLS0lmtGYf4ZmLcVb8AkmSEJIg+fI1dfoA0nKLWJNhwgC4etp4+3g9LTe1ux6c/J+9xpqoBkrK6ujUOidBkFinw8M9YgkJc7Wd8CQzitPpF0WfkkLvs8V8duNTz3H1imKs+wOK04nc1c1oeYXfPudqhzq9lyzKj7xE/lwDd3o66BuC2FkGLtfmUXxYu/fBKT3wHvmGBrY8XUELJsr/+Dppl3JYvUu78/4ENXj17YaA7hd+wmhrG6OtbQzUvIqz7W8oqtvSdwMCDFfuAuHx+W7MUOTv2U7+bAfHtjzOkicL+Na3C1i2TCVUkoWVNis2WxZpmljmZ2GzWVmZYdJ6PPhiV1gwe032wm+y5OkKWgBYjtlkwGAIiPLnVcdpCdMa3LKMgkBSPMLJbpmR5vdBknB3daHICm63G9ktgyIQEoBgcGclQpb9MUIBlFC3oZWVC4zcuXiQHY1aH5C7k3e3WTHjYgwD+h0dHCsrYEcjmL9bw6EfWogdc3l/cwPOi9Us2VBH+bFWVsU4cEYaiQD0UQb6GitYtqWewlfeozSxgQX5Lo6eyyUtCrA2cWFFP8178zgQX0PVOl9eA/qtbdjXb+SApiXct7IUTwkx47kiIi2LGL/ViYLHrigKkdYniK/8OfG/rCQs7VEUBBA4hwVjxKCHoX81aB2AharvWUm8up8nMnNIz8zjUEcy+cWlmLFQkm8h9vJ+VmXnkJ5ZwMkeTXhPA+uzc0jPzuHVSy4SZi/UbLCzOnsfLUPwyTs5pGfnUXx4PZvXWnCdeZ707BzSMytoxMK6slxNbAixfHOSW5a9f7jMjbXr6P1NLbJbpuv5rbg+vsaMbWXoTF9mcM9eBl76FSI6muiiHzD44k8D5rAJMYQ6RqkkxMGt6/u8jdhBZXsHmJJZiQWzMdDncgdGO+/2ccX7+bZrLNA5EUmPkBg1xK2L572Gelo+GSLBrBU6hFj+ydy33HLAZK4oCpGZjyOPjzPwyu8Yd3ShSDrCHp6Nu6sbfdY37lWmHKqy2rkzDOak5RP2BjVmna+5DOFyg0EXSuT/D0Fi+Sd2t8zYrU4SNhWRuLmYhE1FGJ8rYsbGDcRv+D7DZ8+hhIcRlpJM/LZSho+/zcjpM4QvSvdXpqc6tbRhP93OWKqVqrLcew18voXFSQ1cc0DK/FKvPYuShSZwdHCSOq7cdGHO2k5Jhom03FLSjOq8k8Mv+s02rvXHMCfrKc8/L2ktSx+Noa/zkiYihFjqm6zLXk1/3RGG/9rqX3db3mes4zoIgc5oJHHXTsYdXYy2tuFtcv6qCl1Z0PnyVuwn+khZvZ2jH7Ty4QetfHiwnMIsB5W1b3Bl1lMcbW7iQvNubHHtHKq10wnYf7yPk4OpFO5+nf3FqTCizfx5aPCIbnuLC81/Zv936qk4eB7XolLebW7iwpslpA+f5/dV9drA4Dnr+IgL4Z2ffPOWep6SJImIuSkkFD9Lzws70EVHw/gYEjBz105GTjXgamzyP434WlevOn0QaUutpOj7+PupNtXAaGLxioUkoLWrsbDnRA2Lb9hZsvENrfN/IJWltmRihjo40diudUIosf407ETS/ZdHMZIgbnUekY8t4O6p0wghiLFZCZs1k97NPwrYn97dp07/QKwpfw1bnIPOQdCbM1j2GJyteJItwUXwhRAk1pt3RkKKE0q0iDmPEL+mAP1XzIyc+wtDx97yfy3yxX2999/q9A+EOWMthc8sJ3NWDAxf59SRaqrfcWi3fWEEiXX09t0Jj9997SH8kiSw9A2o009pghr8oHcCD3o+pVlurS3Ec6/+zzSD0BQnSKyDUQZua7/7qZd2DpMDn5D61oBb5rcjTm36KU3QMZxmYoIqa5qJmRZrEkyLNQn+A/wVmgNLex6iAAAAAElFTkSuQmCC;" parent="ZBbDV7YV4FOcDgq-P88l-4" vertex="1">
          <mxGeometry x="118.5" y="598" width="75" height="28" as="geometry" />
        </mxCell>
        <mxCell id="ZBbDV7YV4FOcDgq-P88l-35" value="Validación JWT&lt;br&gt;Intercambio x&lt;br&gt;Access Token" style="rounded=1;whiteSpace=wrap;html=1;" parent="ZBbDV7YV4FOcDgq-P88l-4" vertex="1">
          <mxGeometry x="80.5" y="640" width="151" height="50" as="geometry" />
        </mxCell>
        <mxCell id="ZBbDV7YV4FOcDgq-P88l-36" value="Validación Access Token" style="rounded=1;whiteSpace=wrap;html=1;" parent="ZBbDV7YV4FOcDgq-P88l-4" vertex="1">
          <mxGeometry x="78.82" y="710" width="151" height="50" as="geometry" />
        </mxCell>
        <mxCell id="ZBbDV7YV4FOcDgq-P88l-39" style="edgeStyle=orthogonalEdgeStyle;rounded=0;orthogonalLoop=1;jettySize=auto;html=1;entryX=1;entryY=0.5;entryDx=0;entryDy=0;exitX=0.5;exitY=1;exitDx=0;exitDy=0;" parent="ZBbDV7YV4FOcDgq-P88l-4" source="ZBbDV7YV4FOcDgq-P88l-5" target="ZBbDV7YV4FOcDgq-P88l-36" edge="1">
          <mxGeometry relative="1" as="geometry">
            <Array as="points">
              <mxPoint x="155" y="560" />
              <mxPoint x="280" y="560" />
              <mxPoint x="280" y="735" />
            </Array>
          </mxGeometry>
        </mxCell>
        <mxCell id="ZBbDV7YV4FOcDgq-P88l-44" value="" style="group" parent="ZBbDV7YV4FOcDgq-P88l-4" vertex="1" connectable="0">
          <mxGeometry x="360" y="120" width="151" height="50" as="geometry" />
        </mxCell>
        <mxCell id="ZBbDV7YV4FOcDgq-P88l-41" value="" style="rounded=1;whiteSpace=wrap;html=1;" parent="ZBbDV7YV4FOcDgq-P88l-44" vertex="1">
          <mxGeometry width="151" height="50" as="geometry" />
        </mxCell>
        <mxCell id="ZBbDV7YV4FOcDgq-P88l-42" value="&lt;div style=&quot;text-align: start;&quot;&gt;&lt;span style=&quot;background-color: initial; font-size: 10px; letter-spacing: -0.3px; text-wrap: wrap;&quot;&gt;&lt;font face=&quot;Amazon Ember, Helvetica Neue, Roboto, Arial, sans-serif&quot; color=&quot;#0f141a&quot;&gt;&lt;b&gt;PRAGMA_LambdaTorneos&lt;/b&gt;&lt;/font&gt;&lt;/span&gt;&lt;/div&gt;" style="text;html=1;align=center;verticalAlign=middle;resizable=0;points=[];autosize=1;strokeColor=none;fillColor=none;" parent="ZBbDV7YV4FOcDgq-P88l-44" vertex="1">
          <mxGeometry x="5.509999999999991" y="10" width="140" height="30" as="geometry" />
        </mxCell>
        <mxCell id="ZBbDV7YV4FOcDgq-P88l-45" value="" style="group" parent="ZBbDV7YV4FOcDgq-P88l-4" vertex="1" connectable="0">
          <mxGeometry x="359.14" y="210" width="151" height="50" as="geometry" />
        </mxCell>
        <mxCell id="ZBbDV7YV4FOcDgq-P88l-46" value="" style="rounded=1;whiteSpace=wrap;html=1;" parent="ZBbDV7YV4FOcDgq-P88l-45" vertex="1">
          <mxGeometry width="151" height="50" as="geometry" />
        </mxCell>
        <mxCell id="ZBbDV7YV4FOcDgq-P88l-47" value="&lt;div style=&quot;text-align: start;&quot;&gt;&lt;font face=&quot;Amazon Ember, Helvetica Neue, Roboto, Arial, sans-serif&quot; color=&quot;#0f141a&quot;&gt;&lt;span style=&quot;font-size: 10px; letter-spacing: -0.3px; text-wrap: wrap;&quot;&gt;&lt;b&gt;PRAGMA_LambdaTickets&lt;/b&gt;&lt;/span&gt;&lt;/font&gt;&lt;br&gt;&lt;/div&gt;" style="text;html=1;align=center;verticalAlign=middle;resizable=0;points=[];autosize=1;strokeColor=none;fillColor=none;" parent="ZBbDV7YV4FOcDgq-P88l-45" vertex="1">
          <mxGeometry x="5.509999999999991" y="10" width="140" height="30" as="geometry" />
        </mxCell>
        <mxCell id="ZBbDV7YV4FOcDgq-P88l-48" value="" style="group" parent="ZBbDV7YV4FOcDgq-P88l-4" vertex="1" connectable="0">
          <mxGeometry x="360" y="290" width="151" height="50" as="geometry" />
        </mxCell>
        <mxCell id="ZBbDV7YV4FOcDgq-P88l-49" value="" style="rounded=1;whiteSpace=wrap;html=1;" parent="ZBbDV7YV4FOcDgq-P88l-48" vertex="1">
          <mxGeometry width="151" height="50" as="geometry" />
        </mxCell>
        <mxCell id="ZBbDV7YV4FOcDgq-P88l-50" value="&lt;div style=&quot;text-align: start;&quot;&gt;&lt;div&gt;&lt;b style=&quot;font-size: 10px; letter-spacing: -0.3px; text-wrap: wrap; color: rgb(15, 20, 26); font-family: &amp;quot;Amazon Ember&amp;quot;, &amp;quot;Helvetica Neue&amp;quot;, Roboto, Arial, sans-serif; background-color: initial;&quot;&gt;PRAGMA_LambdaVistas&lt;/b&gt;&lt;br&gt;&lt;/div&gt;&lt;/div&gt;" style="text;html=1;align=center;verticalAlign=middle;resizable=0;points=[];autosize=1;strokeColor=none;fillColor=none;" parent="ZBbDV7YV4FOcDgq-P88l-48" vertex="1">
          <mxGeometry x="5.509999999999991" y="10" width="140" height="30" as="geometry" />
        </mxCell>
        <mxCell id="ZBbDV7YV4FOcDgq-P88l-51" value="" style="group" parent="ZBbDV7YV4FOcDgq-P88l-4" vertex="1" connectable="0">
          <mxGeometry x="360" y="370" width="151" height="50" as="geometry" />
        </mxCell>
        <mxCell id="ZBbDV7YV4FOcDgq-P88l-52" value="" style="rounded=1;whiteSpace=wrap;html=1;" parent="ZBbDV7YV4FOcDgq-P88l-51" vertex="1">
          <mxGeometry width="151" height="50" as="geometry" />
        </mxCell>
        <mxCell id="ZBbDV7YV4FOcDgq-P88l-53" value="&lt;div style=&quot;text-align: start;&quot;&gt;&lt;div&gt;&lt;font face=&quot;Amazon Ember, Helvetica Neue, Roboto, Arial, sans-serif&quot; color=&quot;#0f141a&quot;&gt;&lt;span style=&quot;font-size: 10px; letter-spacing: -0.3px; text-wrap: wrap;&quot;&gt;&lt;b&gt;PRAGMA_LambdaMonitoreo&lt;/b&gt;&lt;/span&gt;&lt;/font&gt;&lt;br&gt;&lt;/div&gt;&lt;/div&gt;" style="text;html=1;align=center;verticalAlign=middle;resizable=0;points=[];autosize=1;strokeColor=none;fillColor=none;" parent="ZBbDV7YV4FOcDgq-P88l-51" vertex="1">
          <mxGeometry x="0.5099999999999909" y="10" width="150" height="30" as="geometry" />
        </mxCell>
        <mxCell id="ZBbDV7YV4FOcDgq-P88l-54" value="" style="group" parent="ZBbDV7YV4FOcDgq-P88l-4" vertex="1" connectable="0">
          <mxGeometry x="360" y="455" width="160.51" height="50" as="geometry" />
        </mxCell>
        <mxCell id="ZBbDV7YV4FOcDgq-P88l-55" value="" style="rounded=1;whiteSpace=wrap;html=1;" parent="ZBbDV7YV4FOcDgq-P88l-54" vertex="1">
          <mxGeometry width="151" height="50" as="geometry" />
        </mxCell>
        <mxCell id="ZBbDV7YV4FOcDgq-P88l-56" value="&lt;div style=&quot;text-align: start;&quot;&gt;&lt;div&gt;&lt;font face=&quot;Amazon Ember, Helvetica Neue, Roboto, Arial, sans-serif&quot; color=&quot;#0f141a&quot;&gt;&lt;span style=&quot;font-size: 10px; letter-spacing: -0.3px; text-wrap: wrap;&quot;&gt;&lt;b&gt;PRAGMA_LambdaNotificaciones&lt;/b&gt;&lt;/span&gt;&lt;/font&gt;&lt;br&gt;&lt;/div&gt;&lt;/div&gt;" style="text;html=1;align=center;verticalAlign=middle;resizable=0;points=[];autosize=1;strokeColor=none;fillColor=none;" parent="ZBbDV7YV4FOcDgq-P88l-54" vertex="1">
          <mxGeometry x="-9.490000000000009" y="10" width="170" height="30" as="geometry" />
        </mxCell>
        <mxCell id="ZBbDV7YV4FOcDgq-P88l-60" style="edgeStyle=orthogonalEdgeStyle;rounded=0;orthogonalLoop=1;jettySize=auto;html=1;entryX=-0.015;entryY=0.449;entryDx=0;entryDy=0;entryPerimeter=0;" parent="ZBbDV7YV4FOcDgq-P88l-4" source="ZBbDV7YV4FOcDgq-P88l-22" target="ZBbDV7YV4FOcDgq-P88l-53" edge="1">
          <mxGeometry relative="1" as="geometry">
            <Array as="points">
              <mxPoint x="300" y="490" />
              <mxPoint x="300" y="393" />
            </Array>
          </mxGeometry>
        </mxCell>
        <mxCell id="ZBbDV7YV4FOcDgq-P88l-61" style="edgeStyle=orthogonalEdgeStyle;rounded=0;orthogonalLoop=1;jettySize=auto;html=1;entryX=0.056;entryY=0.5;entryDx=0;entryDy=0;entryPerimeter=0;" parent="ZBbDV7YV4FOcDgq-P88l-4" source="ZBbDV7YV4FOcDgq-P88l-21" target="ZBbDV7YV4FOcDgq-P88l-56" edge="1">
          <mxGeometry relative="1" as="geometry">
            <Array as="points">
              <mxPoint x="320" y="525" />
              <mxPoint x="320" y="480" />
            </Array>
          </mxGeometry>
        </mxCell>
        <mxCell id="ZBbDV7YV4FOcDgq-P88l-101" value="" style="rounded=1;whiteSpace=wrap;html=1;" parent="ZBbDV7YV4FOcDgq-P88l-4" vertex="1">
          <mxGeometry x="650" y="30" width="580" height="550" as="geometry" />
        </mxCell>
        <mxCell id="ZBbDV7YV4FOcDgq-P88l-102" value="" style="rounded=1;whiteSpace=wrap;html=1;" parent="ZBbDV7YV4FOcDgq-P88l-4" vertex="1">
          <mxGeometry x="969.6399999999999" y="60" width="210" height="490" as="geometry" />
        </mxCell>
        <mxCell id="ZBbDV7YV4FOcDgq-P88l-103" value="" style="rounded=1;whiteSpace=wrap;html=1;" parent="ZBbDV7YV4FOcDgq-P88l-4" vertex="1">
          <mxGeometry x="690" y="60" width="210" height="490" as="geometry" />
        </mxCell>
        <mxCell id="ZBbDV7YV4FOcDgq-P88l-104" value="" style="rounded=1;whiteSpace=wrap;html=1;" parent="ZBbDV7YV4FOcDgq-P88l-4" vertex="1">
          <mxGeometry x="723.5" y="510" width="145" height="30" as="geometry" />
        </mxCell>
        <mxCell id="ZBbDV7YV4FOcDgq-P88l-142" style="edgeStyle=orthogonalEdgeStyle;rounded=0;orthogonalLoop=1;jettySize=auto;html=1;entryX=0;entryY=0.5;entryDx=0;entryDy=0;" parent="ZBbDV7YV4FOcDgq-P88l-4" source="ZBbDV7YV4FOcDgq-P88l-106" target="ZBbDV7YV4FOcDgq-P88l-123" edge="1">
          <mxGeometry relative="1" as="geometry" />
        </mxCell>
        <mxCell id="ZBbDV7YV4FOcDgq-P88l-106" value="" style="rounded=1;whiteSpace=wrap;html=1;" parent="ZBbDV7YV4FOcDgq-P88l-4" vertex="1">
          <mxGeometry x="723.5" y="440" width="145" height="30" as="geometry" />
        </mxCell>
        <mxCell id="ZBbDV7YV4FOcDgq-P88l-145" style="edgeStyle=orthogonalEdgeStyle;rounded=0;orthogonalLoop=1;jettySize=auto;html=1;entryX=0;entryY=0.5;entryDx=0;entryDy=0;" parent="ZBbDV7YV4FOcDgq-P88l-4" source="ZBbDV7YV4FOcDgq-P88l-107" target="ZBbDV7YV4FOcDgq-P88l-123" edge="1">
          <mxGeometry relative="1" as="geometry" />
        </mxCell>
        <mxCell id="ZBbDV7YV4FOcDgq-P88l-107" value="" style="rounded=1;whiteSpace=wrap;html=1;" parent="ZBbDV7YV4FOcDgq-P88l-4" vertex="1">
          <mxGeometry x="723.5" y="475" width="145" height="30" as="geometry" />
        </mxCell>
        <mxCell id="ZBbDV7YV4FOcDgq-P88l-140" style="edgeStyle=orthogonalEdgeStyle;rounded=0;orthogonalLoop=1;jettySize=auto;html=1;entryX=0;entryY=0.5;entryDx=0;entryDy=0;" parent="ZBbDV7YV4FOcDgq-P88l-4" source="ZBbDV7YV4FOcDgq-P88l-109" target="ZBbDV7YV4FOcDgq-P88l-123" edge="1">
          <mxGeometry relative="1" as="geometry" />
        </mxCell>
        <mxCell id="ZBbDV7YV4FOcDgq-P88l-109" value="" style="rounded=1;whiteSpace=wrap;html=1;" parent="ZBbDV7YV4FOcDgq-P88l-4" vertex="1">
          <mxGeometry x="720" y="100" width="151" height="160" as="geometry" />
        </mxCell>
        <mxCell id="ZBbDV7YV4FOcDgq-P88l-110" value="&lt;div style=&quot;text-align: start;&quot;&gt;&lt;font face=&quot;Amazon Ember, Helvetica Neue, Roboto, Arial, sans-serif&quot; color=&quot;#0f141a&quot;&gt;&lt;span style=&quot;font-size: 10px; letter-spacing: -0.3px; text-wrap: wrap;&quot;&gt;&lt;b&gt;PRAGMA_BackMockAPI&lt;/b&gt;&lt;/span&gt;&lt;/font&gt;&lt;br&gt;&lt;/div&gt;" style="text;html=1;align=center;verticalAlign=middle;resizable=0;points=[];autosize=1;strokeColor=none;fillColor=none;" parent="ZBbDV7YV4FOcDgq-P88l-4" vertex="1">
          <mxGeometry x="731" y="100" width="130" height="30" as="geometry" />
        </mxCell>
        <mxCell id="ZBbDV7YV4FOcDgq-P88l-111" value="" style="shape=image;verticalLabelPosition=bottom;labelBackgroundColor=default;verticalAlign=top;aspect=fixed;imageAspect=0;image=data:image/png,iVBORw0KGgoAAAANSUhEUgAAAJsAAADkCAYAAACPFVaYAAAAAXNSR0IArs4c6QAAAARnQU1BAACxjwv8YQUAAAAJcEhZcwAAEnQAABJ0Ad5mH3gAABNcSURBVHhe7d1/UFTnvcfxt3d2BudmhnUi7hoYIBIRDQQhKrHRrAYTTUzEHw1amjLVG6kaEYySmkQ0t/6YaErTWGivCbYh5TY2cJuqiSimGuWW1li4RkOihNSEpWay68RhaZnuTph57h+7C8vhN5IHun5fM2fGfb7Pc47JfOacs0fOl1FKKYUQGvybcUCIb4qETWgjYRPaSNiENhI2oY2ETWgjYRPaSNiENhI2oY2ETWgjYRPaSNiENhI2oY2ETWgjYRPaSNiENhI2oc3ICFtrLUWbtlJ+yVgQwWREhM3x1l7yy8Aaa6yIYDLgsD265DHGjIvodVv5xBrjsl44OfJGNaO/uxCbCcBOkS2CrErjPPGvbsBha2n5u3GoC3vT34xDPbv0GkU1UWSvmuUbuEbjFcMcP08LjkvVVF1y4vIYi34eXM4W3G2dR93X7Vz8Yx2O1s7jgbXG693stNdjenA11VH1gR1H16IwUgN08cM6NXZ8lBozLkKZw8I7bWPGRaix46PUpcv1xmU9uvzCTGVO3qMuK6XU8fVd9plS2KiUUqr5L3vUg+PDlfmOJDXpjnBlDktS2cddvr2cVKvDwtXqn+73zgmbowqvKFX5ZLgyL9mssr81QVnvTFKTIry1ned9y77+RP16RZIyj5+sJiUmqajx4WrSUyfVP33lXo/5jxq1dUa4MkckqUmJ3n1n/8G3UHRrwGFTSqkX9hZ0CYV/e+HFnxin9+zrP6q8iHD1YLEjYNAXnOOB82pU3h3hKvE/a9qDcLlwvjKHrVZl/+hYY12yT52xu1Rzs0v982tf2O7crCq/8u/Hezx/gL8sXqTMyT9S77t99fN7VGLYfFVo78cxj69X5vGbVeXXvqJSSgX+WXQx4MsoQN6mXCbHTTIOc1dCPHlP5RiHe3a2glLPLDLTLMZKZ7VvUeqKJfO70xjtG4pbtZb5VHDidMe06HlLsEWGYjaHMtrkGxwbS9ytvj+bIomO8c92cuJoLeYHZhPtcuJwOnGETyKROi583I9jRkUS3XaUooJT1Psvzf5jim4NKmwmk4ni/UWYTB3/d7sb652H8gMluB/JIL2PrNHswg0dAQK4xYwZuPiZPWBwINy4vgLXG5uxPbjAt+3gXPgsUib145hTtlD125VwMJN7bo8gbuUrnHMFzBVdDCps+M9im3LbPz+9eWO3Z7setVZQfhTSM5a2nzl6ZI3ECp1v+ltduIDECVEBgwNhxRoFozMPUH/hfMBWRtaE/h3TPG8LRy5c5cuPyki/soO0PbUBk4XRoMMGkPdUDg+k3s89M6azeeMGY7lXjoOvcSJkJZnzjBUYDTT6z1htQNIyMiMbKHy5AlcbgIf6/fs4wULmzzUs7rcQbAtm4T6wl+LPAr5JtjpxtfbjmK0d33hHW+4iLrxjF6IHxps4PRpV4X3hatKuD40FpZRSFwrmtH/huO+/vDfz6pM3VPqdAV9Gxs9RW/+387dR/42/X+WT4cp83371efuI97gd81zqTL7vWBGTlTUsXJkjVqsy//eVXo755Zvf847d4f0Wa75zs6psbj+Q6MYoNRyNZS7tZartEOlVfyZ/irHYO/d1J6620ZgtoX1ffvvL04LD5QaTGeutIcZqz8ds8+C67sLdwzrR2bCEreqHMaR9uJ36YyuxGosiaA1L2MTN6Ya+IAgxEBI2oY2ETWgjYRPaSNiENhI2oY2ETWgziuzP5Tmb0GJU89fyUFfoIZdRoY2ETWgjYRPaSNiENhI2oY2ETWgjYRPaSNiENkHyUNfO648vpuiy7+O/x3LvPdN4OHsjD93e+d2AlnMl7HqxhPfq7LSEmImMXUpewRbDvBZqf/Uc235ezV+/chM6NoqEFVvY+8OJHAs8jtHkXN76zUoijeMCgilsxfd/i1en7GbnwxbAQ9PbL7Lr7Wa+f/gSO1K8sxpeTeOB52uJfXw3eQtjCcXJn365g8JTbpa8/j775ocC0PTqAmY/38KKPdtYMtFMy3UnTWdc3F2QQeiZk/y1xbu/mgNZFLOGV1ZP9w6ExjJ3TuzQvYgTZIIqbG+m/5k/POl/adnJ648msz2qmMZfLIQvDpIxLY9rz57mDzmBjeBaOJVzD6uOLOPgp7u51+Td1667Smn8WWrAvK5O5USwir7nCa8gvmezEBkDXGmiCXC+93v+RCrZTxg7DoaSmrOOWE8Jh6oARhM6FviwjgbpgjWkgjds1ys4fAQiU1OJBJo+roGJM4i/xTgRmJhAPPB/l+2AhRV7tjPt0708MDGZjLxXOPWppG4oBFXYGl5czIxpycyYGkN0fBaHErbwynrvmczV6gFTSP/upyau4a1Pz1NRsBTe28Gq+2KY8fhBGgwNBsXABFXYYtcc4OixSo6+e5a/fHSFxndy2s9ksXcmwOUGGoyLAJwOnED87QFNakIsxK/YzsHaq3z4y6W4T+Wx/U1n4CoxQEEVNszjsFgs3s3QDiHSlkokb3H4RNdLovOdg/yJWdzr+1JpFLowlx9MhGsut7EkBiC4wtabyevYkR7CoZxMiqudeGPjwVm9l5Vba4nM2c4Ki3es4aMGnO09cj00vfkir34awr1TB9ueS3BThY1QUl86wyuPOtn1WDJxt0UQfVsMMx77LdZtR6h4NsE3z8VHLy1gxuQYon1zZm+sYfq2cvL8PabFoATJc7YB8rTgdLm9jzluDWiJGqi1BWdrH3PEgNycYRPD4ia6jIrhJmET2kjYhDYSNqGNhE1oI2ET2kjYhDbSWEZoMyTdwl1tYJYn7KIPchkV2kjYhDYSNqGNhE1oI2ET2kjYhDYSNqGNhE1oI2ET2gTXvyC0tXCuZAe7fnWS+lYAC1PTlpG9bg22cIBq8qdmU25cx1KK90FW7u+NhXbp+86za9C/j14QVGFzVfP0g8spboolfWsuaVEhgJMLRysgo4z8uQCnyBqXSdWy3RQ8YglYHEXKdDhXY/d+dFaQ92w1thd2k+abFj19IYnhAUvEwHX6jfGD1Py1cUS/95+ZrMwR69WRZmMl0Em1OixcpRQ2GgudXdmvUsLmqMIrxoK4EUFyz1ZLeWkL1nVrWWQ21sRIERxha7XT6AFbkv9FY3Bfd+Jw+rb2t9u9Gn+3kw2b8tq30rpOZfENCY6wOZ00ArTfN9o5sCSZuHjf9lx1p+lieARH2CbEkgjUf+a7wSeK7KqrNF+7Stlyw1wg+tvbKHypoH3L7Dghim9QcISNBGyz4eLhUziMJTFiBEnYLGQ+n0N0zVZsT5RwsanF26WozUO3Xa5c1zru55xOHE7ffPGNCpKwAUlbqDq2nZSardjunsL4cRGMuS2GrAoLtuTAZ2pQ/3Jax/1cfDJx8c9R1WmG+CYEz0PdQK0tOFrdEGLGau7cFFAMn+AMmxiRgucyKkY8CZvQRsImtJGwCW0kbEIbCZvQRsImtJGwCW0kbEIbCZvQRsImtJGwCW0kbEIbCZvQRsImtJGwCW0kbEKb4Axbay1Fm7ZSfsn3uc1JVdEONmzKo+Ck0zC5e44PKnj7Ayfg5MRP8tiwaQdFp/u3VnQvKMPmeGsv+WVgjfV+ri9YTNqeOqwzU4kbC1DNhtsiiN5Wa1jZ4UJxFpnF3lflx09OxWap48fpc8ivMc4U/TXsYXt0yWOMGRfR67byiTXGZb1wcuSNakZ/dyE2E4Cdd0/aYfFa8pcvZFGSBYhlUW4GGxb40tgrC4mPLCT9mbXMp4V3z/pfhBYDNexha2n5u3GoC3vT34xDPbv0GkU1UWSvmtUx1rnVB2Bh/jMF5M0ODRjz4Gqqo+oDO4bWIGKIDHvYfv6zlzCZTIwaNcpYYtSoUZhMJn5R+FNjqUf1hw/RGLmE9CnGSiA7RbYI7inynaXaGih6OIbou9PI+v5iEu9IZkOlcY24UcMetrsS4sl7Kofu3ihUSpG3KZfJcZOMpe61VXOgyE7Kk6uIax/04G6D0aE999JylGwmvyaVwvor1F84T+PnZ8ifbpxlZkyI9y17MTjDHjagx0D5g9hvZyso9cwi098usqmE5fELKGAlv35mmnG2j4eq07WwLIPMW31DplCsYw3TmEb+6yth71yiv1Pi7ZokBmREhM1kMlG8vwiTqeNN5+7Geueh/EAJ7kcySPd3W7gtg8LfbMdmL6HoSE+PLRw47IBptLFg4OTI/hIa5+3m7ZcyiDaWRZ9GRNjwn8U25bZ/fnrzxm7Pdj1qraD8KKRnLKU9NqYQrEmp2GKg6mxPHf+sWKMAl6uP5jJ1VJ2G6JmpJIZLS4fBGDFhA8h7KocHUu/nnhnT2bxxg7HcK8fB1zgRspLMecZKX0KwLZgFlfspqvPej7md1VR9aJwnbtSICpvJZOJ/3vxvKisOD+DyCWCn/Ne1WNdl+J6tDYw18wBlmU523R/DmHERjH+wBFdU585HYggYOzoPxrB3C/94j0oMm6l2fmwsKKWUW5U9Hq7MK97o++/5D5f6stltHPX66g2VHhau0n/XQ130KSjCdubpCcr80GvqS2PB75P96sHx4crcn7b0XTSqwvu8a80P7VeXh/m/9V/ZTdQyy4PrOphvHcTNfZsHVyuYpdfbDbmJwiaG24j6giCCm4RNaCNhE9pI2IQ2EjahjYRNaDMiw+ZqM46IYDAiwyaCk4RNaCNhE9pI2IQ2EjahjYRNaCNhE9pI2IQ2EjahzYj84cmh3t/A2Sn+zmIK/C23bonFNnMaaRs2smiC76d1T+8gLheKL2zHFri0qYTlj+5j0r7zZH2WyfyXe3qFMIG8d0rJijSOBy85s/XA84UTZuZSsHM3Bc9kMNV1iMyUJJ5+3z/BieMLZ9d3Tds8NH7hxOEB6+y13vU7d1OwLBLHF5Gk+z/vXIvN/wb+zcL4UsJgDPULL0O9v4HzvuTS+eUYh3r1oXBl/sFR78fj65U5bL2qDJihlFLqyn6VEhauVh83jPc0/yYiZ7Z+sxAdA1xpkj4fgyRh66/rFZQfhuh5qdLnY5AkbL2o37OYuKnJxMXHMCYui/K7tlC6oT/dKkV3JGy9iFt3gKp3K6l67yz19VdoPpZD4i3GWaK/JGy9MY/DarF4N+PLzWPMjKaOTz7rPMxVO40kMPVOw7iQsA3atGVkmhvYtekVLrZ6h9zOanb9qAT3lGUsuomen/WXhG2wTNP48bECbJ/swHa7t6v5+PjlFLSuoezQGvkS0Q35F4Qh4L7u9L43EWLGKv1AeiRhE9rIZVRoI2ET2kjYhDYSNqGNhE1oI2ET2kjYhDYSNqGNhE1oI2ET2kjYhDYSNqGNhE1oI2ET2kjYhDYSNqGNhE1oI2ET2siPhfemrYVzJTvY9auT1LcCWJiatozsdWuwhQNUkz81m3LjOpZSvA+ycn9vLLRL33eeXXONo8FNwtYTVzVPP7ic4qZY0rfmkhYVAji5cLQCMsrInwtwiqxxmVQt203BI4G/Uz6KlOlwrsbu/eisIO/Zamwv7CbNNy16+kISwwOW3AwMjWYGZai7Dg31/gbj/WcmK3PEenWk2VgJdFKt7s+vAr+yX6WEzVGFV4yFm4vcs3WrlvLSFqzr1rLIbKyJwZKwdafVTqMHbEkJ7UPu604cTt/m8nSa3vi7nWzYlNe+lfbUbPImJ2HrjtPp7cHWft9o58CSZOLifdtz1Z2mi/6RsHVnQiyJQP1nvht8osiuukrztauULTfMBaK/vY3Clwrat8yOE6IIIGHrVgK22XDx8CkcxpIYNAlbtyxkPp9DdM1WbE+UcLGpxduouc2Dq0vHZsB1reN+zunE4fTNF51I2HqStIWqY9tJqdmK7e4pjB8XwZjbYsiqsGBLDnymBvUvp3Xcz8UnExf/HFWdZgjkoW4/tbbgaHVLl6IbJGET2shlVGgjYRPaSNiENhI2oY2ETWgjYRPaSNiENhI2oY2ETWgjYRPaSNiENhI2oY2ETWgjYRPaSNiENhI2oY2ETWgjYRPayI+Fd8tO8XcWU3DJ99GSwPy7Ekj5j3VkJoQGzOuli9GF7dhO7yAut4G8d0rJ6vI743tbO48T3dZ80oqo30kv67djMw6PABK2btkpsn2L/NA1lP5gurd7UVkJBZUNRK8uo+qFWXhbgPTSxSgtAWtlNmO+V8euc6fJnhBQhj7WWnAcqfG+lY+TI89upWp2wLyo6SxKqutlfQLWgJERw9BoZlCGuuvQUO9v4BpV4X3hyvzkyU6jze+sV9awySrvrH+kjy5Gx9crc4/di/pY2877d+k6r7/rRw65ZxsA8yNryba0UHqo1lgS/SBhG5AEps4Gd5O90xvvN9LF6EbWMgTrdZKwDVCICWh14zIWRN+M19XBGOp7rKHe38B1f8/WPr7BP97HfZPcs3UiZ7aBaDhE6SVYNHeWsSL6QcLWG7ervTNR/cm9pD28l/qk7eSnGfp99NHFqPmrwJqhc2Ufa/t0o+t1Mp7qBmOoL3tDvb+B810uwwK2iJlqUf5R9bk7cJ73UtZpXli4MoetV5XKfxk11vyX5z7Wtuv9Mtr3+pFDHuoKbeQyKrSRsAltJGxCGwmb0EbCJrSRsAltJGxCGwmb0EbCJrQZkn9BEKI/5MwmtJGwCW0kbEIbCZvQRsImtJGwCW0kbEIbCZvQ5v8Bm32LKdlLJEkAAAAASUVORK5CYII=;" parent="ZBbDV7YV4FOcDgq-P88l-4" vertex="1">
          <mxGeometry x="755.21" y="130" width="81.58" height="120" as="geometry" />
        </mxCell>
        <mxCell id="ZBbDV7YV4FOcDgq-P88l-141" style="edgeStyle=orthogonalEdgeStyle;rounded=0;orthogonalLoop=1;jettySize=auto;html=1;entryX=0;entryY=0.5;entryDx=0;entryDy=0;" parent="ZBbDV7YV4FOcDgq-P88l-4" source="ZBbDV7YV4FOcDgq-P88l-113" target="ZBbDV7YV4FOcDgq-P88l-123" edge="1">
          <mxGeometry relative="1" as="geometry" />
        </mxCell>
        <mxCell id="ZBbDV7YV4FOcDgq-P88l-113" value="" style="rounded=1;whiteSpace=wrap;html=1;" parent="ZBbDV7YV4FOcDgq-P88l-4" vertex="1">
          <mxGeometry x="720" y="270" width="150" height="160" as="geometry" />
        </mxCell>
        <mxCell id="ZBbDV7YV4FOcDgq-P88l-114" value="&lt;span style=&quot;color: rgb(15, 20, 26); font-family: &amp;quot;Amazon Ember&amp;quot;, &amp;quot;Helvetica Neue&amp;quot;, Roboto, Arial, sans-serif; font-weight: 700; letter-spacing: -0.3px; text-align: start; text-wrap: wrap; background-color: rgb(255, 255, 255); font-size: 11px;&quot;&gt;PRAGMA_TicketsAPI&lt;/span&gt;" style="text;html=1;align=center;verticalAlign=middle;resizable=0;points=[];autosize=1;strokeColor=none;fillColor=none;" parent="ZBbDV7YV4FOcDgq-P88l-4" vertex="1">
          <mxGeometry x="731" y="270" width="130" height="30" as="geometry" />
        </mxCell>
        <mxCell id="ZBbDV7YV4FOcDgq-P88l-115" value="" style="shape=image;verticalLabelPosition=bottom;labelBackgroundColor=default;verticalAlign=top;aspect=fixed;imageAspect=0;image=data:image/png,iVBORw0KGgoAAAANSUhEUgAAAMUAAAEJCAYAAAAkZeOLAAAAAXNSR0IArs4c6QAAAARnQU1BAACxjwv8YQUAAAAJcEhZcwAAEnQAABJ0Ad5mH3gAABm+SURBVHhe7d1/bNR1vu/xZ28maRMThihMS7u0a5cyVpDCisVdcFSQVkEqcCzXes6cA9EuopRiKUdXCt7LahTswdV291ZLll7rhV2660o91gOmHJlD7wKhQaDHWjDoFDHOmCVM9zZnJjb53j9m2k4/bbFUih36eiTfyHx+fKcm8+r3V+f9ibMsy0JEevw3s0FkrFMoRAwKhYhBoRAxKBQiBoVCxKBQiBgUChGDQiFiUChEDAqFiEGhEDEoFCIGhULEoFCIGBQKEYNCIWJQKEQMCoWIQaEQMSgUIobYCEVnM5Ulm6hrNTuulJ9T9Q14zobMDpEeMREK3zvbKNsLiRlmT7cmiialkLa52ewwtFDxWCEb9/vMDpEeVz0UDy59mPETUy67rXxstTntMvzU724i4dFFuGwA7VS6UijcHz0mgyXFBRTlDpqaq2Cg95Xr0VUPRUfH38ymftrPf2k2Da51F5XHU1m7am6k4Ru854wxOMh5tpzSeeP6Nnd24PP78QWu4HQp1IGvtQlPq5++0wZ6X6ArRKB7fKfZKTHJuspOnW6xbkpKtcZPTLHsE5L7bOMnplg3JaVarZ+2mdMG9elLd1r2WS9bn1qWZf3bU/32mV3htSzLa1Xc1f1vy7KsgLX/6ZnhMT+ZaaUmJVuP/5tlWVaj9XjPHMuyzlRZd01Itu569bT1X99a1qX/+J9WdlKylXjrTGvqrTdb9qQl1pvnLvO+53ZbS34Sfo+pM2ZaqUk5VkV7788usemqh8KyLOulbeX9PkTd20vb/8UcPrhvD1ulKcnWwmpfVGP4gx3+kHfrG4qv38q37BNyrFc+CfYO+dbqG4ozVdbCpGTrrlfPWP9l9b5X/u5AZELA2vv3yZa9qDHyuv/7flFxt2W/r8r6orcp8j4Sy6766RNAaUkxtzinms3cNn0apU+vM5sHd6SB2tBc3HkOs+cy/Bx4pwmWF1OaGd/bbIsacvoN8h7YSvCZjziwPoMEgObwey28Mxg+5fIHScvMgI/P4o2aGi0xOQM+rqF8Twu+7lOt6PeRmDQiobDZbFRXVWKz9X5CBmq7vBB1O2sILi4g/0oyQZDAXwFbgtnRo+2dGjydi9i4KhIIgEsBgjTxwtJcXAvDm3tvgMS5GaT1nd4jYXklR1+/nZMbc3H+KB1XSQO+LnOUxJoRCQXdR4WS4p7XGzesH/DoMajOBureh/yCZb0f3CFJJDEVCAQIml0Rzk3VVMw7jHvhJjyBSGPiZBKZywsfnqDtZNT20nxjdrR4nAWVeL68wNf/90WS9hZSuMdvDpIYM2KhACh9eh33zb+XOXfMZsP6IrP7snx7dnEgfiXuBWYPJADez9vDL/r9Zo7HlTsX9ldRfrQjMibU986QbTruPfW8YK8h7+FtHAsA0+8jz95EeXkTgZ59hvD5I/sY4H2DgY6e4CXcPJWp9p6hEsvMi4zRIXzhPPWF02aHZVmWdbL87p4L97v+18B3nw6V9Y6xT0i2Fv7O2//uU/CM9cp9yZb9vtesT4OWZZ3ZbeXfGh6f+pPwf6e+dHzQ9z36P8J3uBJvnWklTki27PdXWZ/qQjvmxVmjcdGW1m1kud4l3/MXyjLNzivQFSJwMQB2B/aoa+7vErzoJ9AFCUOZF+rAFwhCvJ3E7xwssWBUhsLzz+nknd5C2wcrSTQ7RUbYqAyFyA9pRC+0RWKRQiFiUChEDAqFiEGhEDEoFCIGhULEcE1C0fu3RCKj3zUJhUgsUShEDAqFiEGhEDEoFCIGhULEoFCIGBQKEYNCIWK4Jt+8C3SBfajlnkZEO9WPPER5dyn/GzJw3Xk7eUXrWXJz3+9VB47WUPZyDQdOtxOIt5M2dRllO54xxnVwbOdzlFY0ceavQew3pZJV8AwVz06hPvp9TJnFHPj9ykHrSMnoMGZCUen6GRWZL1K+2AGE8O7bTln9JQr/tZVX5oRHtVXlMWdzM073i5QtzsCOH0/1Vsobg+S/fZTq3HABZ29VLlmbO3Bv30x+hp3ART/ejwJk7yjA/lEjZyJVcY6+WUglq6n9xexww7gMFt4TVYBNRqe+xT1GxqUfvOyLWQLHsizLZ715f7Jl/8X74ZcXdltLJiRb2a+eiRpjhYs1P3mLZU95zjr0rdWzL/uT3TVmB7f/yaGNk9FlDF9TOEhLB86dxwv4Gv+Mh/mUFpprXIwjZ/0anKEa6g4BJGC/CTjdQtsVVPiX2DF2Q3Gxgbp9kLZgPmmA95PjkHEHM24wBwIZ05kBHGttBxy4t28h++w25vx4Fnklb3BAy4VdV8ZUKNpefghn1iyc09IZ7yyk7rZnqC0KHxkudYbAFj+08/2M1Rz44gSeHcugcSsrfp6O85E9tOlP5K8LYyoUzjU78Xy4H8+/H6Gt7RyXPljXc2Rw3jodWs/SZk4C8PvwATNuTu1ti3cwo2AL9Scv4K1ZRrCxlI0qrnxdGFOhwD6RRIcjvN3Y91Zs2t3zSeMd6vb3PxXy1e/Bw1xcd5g9YfbFxRRlEC6fKTFvbIXicjLX8MqKeOqeclN52B+pJh7Cd3gb+b9sJm39FtyOcFtby9modfRCePdsp+JsPK6ZUUcSiVkKRY9x5Lx2iNo8P2XLZpE0MYXxE9NxLvs9Sc/X49k0PTIuwKnyXJxT0iOrvaaTte44c56vo2yesUuJSWPk4d0V6q4kTgL2G8eRMNDP3tmBr/M7xkhMUihEDDp9EjEoFCIGhULEoFCIGBQKEYNCIWJQKEQMCoWIQaEQMSgUIgaFQsSgUIgYFAoRg0IhYlAoRAwKhYhBoRAxjM1QdDZTWbKJuu5CyF1+PJVbKSoppbxxaGVqfB838N7HfsDPgX8ppahkK5UfDW2ujG5jMhS+d7ZRthcSIxUy28ofIu/lFhLvnI/zJoAmiialkLa52ZjZ62R1Ie7qFgCSbpmPy9HCK/l3U3bcHCmxZtSH4sGlD0eqZgy+rXxstTntMvzU724i4dFFuGwA7XzY2A4PPUHZikUsmekAMlhSXEBRrllXdiAOZixeRP6zT5BDBx8eaTcHSIwZ9aHo6Pib2dRP+/kvzabBte6i8ngqa1fN7W3rV//MQc6z5ZTOC5feDwsRON+C5+N2eko+yXVp1IfiN6/vwGazERcXZ3YRFxeHzWbjtxWvml2Datv3Lt7JS8nPNHuitVPpSmFOZeS3ftdZKh9IJ+2neRT+00PM+Mksivabc+R6MepDcdv0aZQ+vY6BKvFYlkVpSTG3OKeaXQPramJnZTvZT67C2dMYItgFCePsfYZG89VsoOz4fCraztF28gTeLw5RFlmHpZed8fFAlw4jsW7UhwIY9IPfHZghO9JAbWgu7jxH+PX5GlZMy6Wclbz17O3m6IgQno+aYXkB7hsjTbZxJN5kDON2yv73Sth2D2mP1OA1uyVmxEQobDYb1VWV2Gy9FdUGaru8EHU7awguLiA/kgkmFVDxf7bgaq+hsn6w26k+fO2A7buK9Pupr6rBu+BF3ttRoHXtYlhMhILuo0JJcc/rjRvWD3j0GFRnA3XvQ37Bst41KGzxJM6cjysdPEfCt1f7SyQxFQgEIkWXB9OC5yNIu3M+M5L7VjSX2BIzoQAofXod982/lzl3zGbD+iKz+7J8e3ZxIH4l7gVmz3eJx5U7F/ZXUdkSvl4I+pvwnDbHyfUipkJhs9n44x/eZn/Dvis4bQJop+6tZhLXFESeTVyZRPdO9rr9vHBvuNJ40sIaAqnd52By3TFXhhwJP/jqqJ+8bM2YcKf1q0/MDsuyrKC19++TLft/3/3dP+f/C1hfXwqarWF/3W3lT0i28v80SL/EjDERikMbb7bs9++yvjY7up2pshYmJVv2CeaywkMRWUJ4QrJlv7/K+vQH/n+V70+l+HuECFwEu7Hs15B0hQh0gt0+jLky6igUIoaYutAWuRYUChGDQiFiUChEDAqFiEGhEDHEZCgCXWaLyNUTk6EQGUkKhYhBoRAxKBQiBoVCxKBQiBgUChGDQiFiUChEDDH5JaOrvb9h6+rgWM1WXvhdI22dAA6y8pazds1qXMkATZRlraXOnMcyql+DwuI/mx098l87wQv3mK1yLSgUwxVoYuPCFVSfzyB/UzF5qfGAn5PvN0DBXsruAThI4UQ3nuUvUr44uvpHKtmz4djxSK1afwOlv2zC9dKLdBcvTJu9iBnJUVPk2jG+sz0irnbhgqu9v+E4+uwtlj3lKav+ktkTrdF6fCjFEM5VWdkT7rYqzpkd8kPQNcWwNFNX20HimidYMnhdZolRCsVwdLbjDYFr5vSepuBFPz5/ZDMWsPD+6VcUlZT2bLWDVeiUUUGhGA6/P1xVvOe6pp2dS2fhnBbZnmvqM1xii0IxHDdnMANo+7x7Ka9U1noucOmbC+xdYYwF0v5uMxU7yns2d+8BRkYhhWJYpuOaB6f2HcRndknMUyiGxYH7+XWkHd+E67EaTp3vCJfp7woRGKhef+Cb3usNvx+fPzJeRiWFYrhmPoPngy1kH9+E66eZJE1MYfykdAobHLhm9a1I3vbrvN7rjWmzcE57Dk+fETKa6OHd1dDZga8zCPF2ElVPNuYpFCIGnT6JGBQKEYNCIWJQKEQMCoWIQaEQMSgUIgaFQsSgUIgYFAoRg0IhYlAoRAwKhYhBoRAxKBQiBoVCxKBQiBgUiquhs5nKkk3UtZodV8b3cQPvfXR26EUNvmrhvfoWVRS5yhSKq8D3zjbK9kJihtlzZU5WF+Le0l02p4miSSmkbW42h/U6XYX7sSpOmu3yvYy5UDy49GHGT0y57LbysdXmtMvwU7+7iYRHF+G6qt8bz2BJcQFFud8zaXLFxlwoOjr+Zjb1037+S7NpcK27qDyeytpVc82egXWFCPjbOdXYRNtl6z85yHm2nNJ54/q0BgPtnDrcgteoVxsWIuD303b4YLgWVZfZHxYM+Al0mq3SbcyF4jev78BmsxEXF2d2ERcXh81m47cVr5pdg2rb9y7eyUvJzwS+qiFnYjobD0cN8O8hr7vtfA05k9Jx3vsQ+SVruXtaJkkP1ITr0vbTTqUrhTmV3aU5oa0qj6QpPyNntZuc2zNxljRGjW+iaFI6aT/PJe+pDSzJziQpq5QDkQ//gadSGL/6dSofSCFpyixydvXuV/oac6G4bfo0Sp9ex0CVfSzLorSkmFucU82ugXU1sbOynewnV+EESF5E/uwQtfW9BZZ99XvwTF7N4/OASQXUf3mBr//zBG0nT/D1B6tJPF7De59H73QQX9VQtLmZnNdbw/M/O8exZ2dHDZjNK59d4NJn4X17Py0nx7+HuuiAvn+Y4Ka/4P2slQOrUqM6JNqYCwUw6Ae/OzBDdqSB2tBc3N3LD+HAXbiI4O4GPF2Erzf+1EzaiuXh0NjiSYiPFE+7GIKbEhnfZ4eDCx5p5BjLcOf3nk7ZHdGLY8STcAMQ6giX5bQn0m/pjPQF5M9LxW4fh/0Gs1O6jclQ2Gw2qqsqsdl6r4wHaru8EHU7awguLiA/qkpmQt5KCqmhthH4qoG647ez9h8jF8tdZ6l8MJ3xU+bguvdOnHdtpa136mX5vjoPQPygP14HB0pmMf5HM3EtvJusKe4B1tqToRiToaD7qFBS3PN644b1Ax49BtXZQN37kF+wjITodttc8t3x1NUfxNvwDscWr8IdWbvOu3MtZZ+v5MD5VtpOnqDtP7aEjyBDkJg8GQgMfoHcuJUVtdOp+OxceN+f1ZJvjpEhGbOhACh9eh33zb+XOXfMZsP6IrP7snx7dnEgfiXuBWYPZP/jatL2bsP9VnPf0HRF3zEK4TtzlktRLRAeM9AdqYQ7F+HiIBXVLeG7SiE/niNRSyJ19Z0VPHt2kAt4+S5jOhQ2m40//uFt9jfsu4LTJoB26t5qJnFNwcDPJjJXsXZ2C6fO9Q1N2vJiloTeIGdyJmmT0sk7HE9W1DTX8gISz25jjuuN/h/o5AJq3y7Aty2XpEkpjP9xLtV/nUxid/+CJyi9+SBFU9JJ+1EKWZvbSdMjjmFRgeXhaN1Glutd8j1/oSzT7PwOXSECFwNgdzCsAuVdIQIXQ8Q7xvU9bYPIc4oA3ODQhfT3oFAMg+ef08k7vYW2D1b2/qaW64ZCIWIY09cUIgNRKEQMCoWIQaEQMSgUIgaFQsSgUIgYFIrIcw+RbgqFiEGhEDEoFCIGhULEoFCIGBQKEYNCIWJQKEQMCoWIQaEYFdqpfmQWzqzI9vMVFJZs473P+9eLDRytoWjZPTinpJM0bRZzlm0dYFwHx3auxZU1i6QfZeLMymXFywfxme9jbo8MVsJzbNHXUUdgf1eunUrXz6jIfJHyxQ4ghHffdsrqL1H4r628Mic8qq0qjzmbm3G6X6RscQZ2/Hiqt1LeGCT/7aNU54arB3qrcsna3IF7+2byM+wELvrxfhQge0cB9o8aOdMR3t/RNwupZDW1v4iU3xyXwcJ7MgYoiDDGWNfApW/Nlu9ntO/vynmtiruSrewKb1Sbz3rz/mTL/ov3wy8v7LaWTEi2sl89EzXGsiwrYO1/8hbLnvKcdehbq2df9icbjXH97X9yaOPGGp0+jVoO0tKBc+fxAr7GP+NhPqWFZjGnceSsX4MzVEPdIYAE7DcBp1toM8+qZEgUitHqYgN1+yBtwXzSAO8nxyHjDmYMVM8pYzozgGOt7eEiz9u3kH12G3N+PIu8kjc4cFbpuBIKxSjS9vJD4QveaemMdxZSd9sz1BaFjwyXOkPhquXmpIFkrObAFyfw7FgWrjH783Scj+yhTX8iPyQKxSjiXLMTz4f78fz7EdraznHpg3U9RwbnrdOh9ezAVcr9PnzAjJuj1pyIdzCjYAv1Jy/grVlGsLGUjXv80bNkEArFaGKfSKLDEd5u7FtTM+3u+aTxDnX7+58K+er34GEurjvMnjD74mKKMsAXGKh0s5gUiliRuYZXVsRT95SbysP+SGXyEL7D28j/ZTNp67fgdoTb2lrO4utZEy+Ed892Ks7G45qp1YuGQqGIGePIee0QtXl+ypbNImliCuMnpuNc9nuSnq/Hs2l6ZFyAU+W5OKekR1Z7TSdr3XHmPF9H2TxjlzIgPbwbgf2NuFBH5FQoAfuN40gY6Gfv7MDX+R1jZEAKxQjsT2KbTp9EDAqFiEGhEDEoFCIGhULEoFCIGBQKEYNCIWJQKNCDO+lLoRAxKBQiBoVCxKBQiBgUChGDQiFiUChEDAqFiEGhuBo6m6ks2URdq9khsUihuAp872yjbC8kmhUtJSaNuVA8uPThSJWLwbeVj602p12Gn/rdTSQ8ugiX/lzkujDmQtHR8TezqZ/281+aTYNr3UXl8VTWrprb0xQMtHPqcAventpLAwkR8HcQVCnLUWfMheI3r+/AZrMRFxdndhEXF4fNZuO3Fa+aXYNq2/cu3slLyc+MvK7KI2nKz8hZ7Sbn9kycD+TinLiWAwAcpHBiCoW/foOcSemkTctj5/m++5Mf3pgLxW3Tp1H69DoGquxjWRalJcXc4pxqdg2sq4mdle1kP7kKJ8BXNRRtbibn9Va+/s8TtH12jmOPOvAZ0947FKLsWCvez+p5fLLRKT+4MRcKYNAPfndghuxIA7WhubjzHAD4Ghs4xjLc+eEVhQDsDnvUhLC0BUtxTR6H3a4iZaPRmAyFzWajuqoSm633EzlQ2+WFqNtZQ3BxAfnhTBAMhKt6xw91FzIqjclQ0H1UKCnueb1xw/oBjx6D6myg7n3IL1jWs2ZEYvJkIECg0xgrMWXMhgKg9Ol13Df/XubcMZsN64vM7svy7dnFgfiVuBf0tiXcuQgXB6mobgnfVQr58RxpiZ4mMWBMh8Jms/HHP7zN/oZ9V3DaBNBO3VvNJK4p6PtsIrmA2rcL8G3LJWlSCuN/nEu1MhFzVGB5OFq3keV6l3zPXyiL3IrtoytE4GKIeMc4EvavZfw/wN5vKskxx8moNKaPFMPl2fUG3tmrKRwoEAC2eOyOcUNbn05GHYViGFzbz3Hpg5Ukmh0DiXeQmOxQQGKITp9EDDpSiBgUChGDQiFiUChEDAqFiEGhEDEoFJFbvCLdFAoRg0IhYlAoRAwKhYhBoRAxKBQiBoVCxKBQiBgUChGDvmQ0Avsbtq4OjtVs5YXfNdLWCeAgK285a9esxpUM0ERZ1lrqzHkso/o1KCz+s9nRI/+1E7xwj9kqA1EoRmB/wxJoYuPCFVSfzyB/UzF5qfGAn5PvN0DBXsruIVKL1o1n+YuUL45UYAMglezZcOx4e/ilv4HSXzbheulFIsULSZu9iBnJUVNkcNY1cOlbs+X7Ge37G46jz95i2VOesuovmT3RGq3HJyRb2RVes6Ovc1VW9oS7rYpzZocMha4pRoVm6mo7SFzzBEv6l56Va0yhGA062/GGwDVzek9T8KIfnz+yGetceP/0K4pKSnu2WhVcu6oUitHA78cL0HNd087OpbNwTotszzX1GS4jS6EYDW7OYAbQ9nnkQplU1noucOmbC+xdYYwF0v5uMxU7yns2d+8BRq4ChWJUmI5rHpzad7DfAi9y7SkUo4ID9/PrSDu+CddjNZw630GQSE3aoDkWCHzTe73h9+PzR8bLVaFQjBYzn8HzwRayj2/C9dNMkiamMH5SOoUNDlyzop9JQNuv83qvN6bNwjntOTx9Rsj3oYd3I7C/762zA19nEOLtJNrjzV4ZYQrFCOxPYptOn0QMCoWIQaEQMSgUIgaFQsSgUIgYFAoRg0IhYrgmD+9EYomOFCIGhULEoFCIGBQKEYNCIWJQKEQMCoWIQaEQMSgUIgaFQsSgUIgY/j8KNQueYyjB3wAAAABJRU5ErkJggg==;" parent="ZBbDV7YV4FOcDgq-P88l-4" vertex="1">
          <mxGeometry x="746" y="290" width="96.64" height="130" as="geometry" />
        </mxCell>
        <mxCell id="ZBbDV7YV4FOcDgq-P88l-144" style="edgeStyle=orthogonalEdgeStyle;rounded=0;orthogonalLoop=1;jettySize=auto;html=1;entryX=0;entryY=0.5;entryDx=0;entryDy=0;" parent="ZBbDV7YV4FOcDgq-P88l-4" source="ZBbDV7YV4FOcDgq-P88l-116" target="ZBbDV7YV4FOcDgq-P88l-123" edge="1">
          <mxGeometry relative="1" as="geometry" />
        </mxCell>
        <mxCell id="ZBbDV7YV4FOcDgq-P88l-116" value="&lt;div style=&quot;text-align: start;&quot;&gt;&lt;b style=&quot;background-color: initial; text-wrap: wrap; color: rgb(15, 20, 26); font-family: &amp;quot;Amazon Ember&amp;quot;, &amp;quot;Helvetica Neue&amp;quot;, Roboto, Arial, sans-serif; font-size: 10px; letter-spacing: -0.3px;&quot;&gt;PRAGMA_NotificacionesAPI&lt;/b&gt;&lt;br&gt;&lt;/div&gt;" style="text;html=1;align=center;verticalAlign=middle;resizable=0;points=[];autosize=1;strokeColor=none;fillColor=none;" parent="ZBbDV7YV4FOcDgq-P88l-4" vertex="1">
          <mxGeometry x="721" y="510" width="150" height="30" as="geometry" />
        </mxCell>
        <mxCell id="ZBbDV7YV4FOcDgq-P88l-117" value="&lt;div style=&quot;text-align: start;&quot;&gt;&lt;span style=&quot;background-color: initial; font-size: 10px; letter-spacing: -0.3px; text-wrap: wrap;&quot;&gt;&lt;font face=&quot;Amazon Ember, Helvetica Neue, Roboto, Arial, sans-serif&quot; color=&quot;#0f141a&quot;&gt;&lt;b&gt;PRAGMA_VistasAPI&lt;/b&gt;&lt;/font&gt;&lt;/span&gt;&lt;/div&gt;" style="text;html=1;align=center;verticalAlign=middle;resizable=0;points=[];autosize=1;strokeColor=none;fillColor=none;" parent="ZBbDV7YV4FOcDgq-P88l-4" vertex="1">
          <mxGeometry x="741" y="440" width="110" height="30" as="geometry" />
        </mxCell>
        <mxCell id="ZBbDV7YV4FOcDgq-P88l-118" value="&lt;div style=&quot;text-align: start;&quot;&gt;&lt;b style=&quot;color: rgb(15, 20, 26); font-family: &amp;quot;Amazon Ember&amp;quot;, &amp;quot;Helvetica Neue&amp;quot;, Roboto, Arial, sans-serif; font-size: 10px; letter-spacing: -0.3px; text-wrap: wrap;&quot;&gt;PRAGMA_MonitoreoAPI&lt;/b&gt;&lt;br&gt;&lt;/div&gt;" style="text;html=1;align=center;verticalAlign=middle;resizable=0;points=[];autosize=1;strokeColor=none;fillColor=none;" parent="ZBbDV7YV4FOcDgq-P88l-4" vertex="1">
          <mxGeometry x="731" y="475" width="130" height="30" as="geometry" />
        </mxCell>
        <mxCell id="ZBbDV7YV4FOcDgq-P88l-119" value="" style="shape=image;verticalLabelPosition=bottom;labelBackgroundColor=default;verticalAlign=top;aspect=fixed;imageAspect=0;image=data:image/png,iVBORw0KGgoAAAANSUhEUgAAAGUAAAAfCAYAAAD+xQNoAAAAAXNSR0IArs4c6QAAAARnQU1BAACxjwv8YQUAAAAJcEhZcwAAEnQAABJ0Ad5mH3gAAAlQSURBVGhD7Zl/UJR1Hsdfy8IuUJC1a46LWPywFbgovDU0fgWJt94qZxRqt85pzVyH3V1MR9g4YOMp10xYIXOXkFeYd5mF5Hnojhh6jmEFSC1B/qDLHyU/xlymFA+F2Oe5P55nl2cfl7z+uJGZ9jWzPPt8Pu/v98vs5/l8P9/v99HcHn2XSIAJRZDaEODGEwjKBCQQlAlIICgTkEBQJiAaf6uvGZNyuG/KCsJDJhEUpCVIE0RQkPTRarRogjRoNVqvTfIrdPL16ncXafyikvbeXeohAnwPfjNlltGOThuBIIqIooAgCoiigCh4vosIsl3w+S7rZE1YyCSsM/6g7j7AdfAblJCgmxEEN4Lgxi0I3qtbFHALbtyCG0EQvD7Be5V1wpguLDhS3X2A6+A3KFJ2iIoskDLmLksYMcmh3kzxZJEgCiQ+oMcwXeubWXLbAD8Mv0HxPOVSRriJMATxy7UmHvyVgWkJetxuhd8tZcWdySEs+N1NZK0MIyTUky2SL8APQ3vTLYZ1amPSrQ+hATQaQAOFL8ZxtPFbTnUMET0zlK+OX+H26TqGLwvcZgpBFxpEUnoY+zZfwjgtmPjZOk59/B3IfRw+u0U9hEweRRvsZBq7+fD4oNeauqKEokes5OZkk5tmZjKDdH05IDnn2Cn9jZW4Kx/S0TPWk5KEvEKKluexICebzKQIhvq76b2kVk1cxs8U0VMzBIJDNHx8YAARgZi7wzFOC2H2zyMJjdQwc24o0YkhGKeHIAgCXYeGCNZrfGrMeEStLuAJm5WV+XaiFPaE+63YsmeTYDaTMOsXlLz4dz56VdbEpbHQZiUzTtHASxob6pqpL7Mzb5aZBLOZ1PwSKtbY1UIVJjbsaKZ+jdp+Y/AbFEFeaXnqAxrk2iDS/t63nOq8zLsv96MNhpY9F+k4OMiXn11FFEVEBMBTj6Ra5B8TK1PMuDo6cZnTKJqjcn/9AYuWLGVR/gJS/tpJ6OzllNlUGhX5m8rIn97HrmcymGtbyqIlS5mfk0HWk9u9moRMKzabFds8i+JByCbKpEev9xokoi3k2qzYbGkkqFzXxdvWSmai2vn9+A+KXCfcghu3240oivK9HCjBzdR4HcvXmZg0RStpBFnjFqWFgNuTKePUlDmFZJn7cG6pwdlv4t48i1oxRtcAF9Chn6R2KLGSm2Tg0qcNrH1f7ZMorWvmredLWP1kEWXPb2ZvXRmplFB/pJDUCIi1NuM8spvqZYD9Bd7buZn1Tz5GUXEl9U2VrORxth9pY886k9Rh2Tsc++QgtSukW9umfRxrqiR/WSWHd1ZSUVxIUXEp1W8epNaexiZHG843Cr3/T2rFbknvtUj4D4rPvkMEETlzREREYpLDWfzUVGpLv6Ln8yFJh+jNLtGnD/+rr9S8ZKL6u9nR0s6OY31EzbbjkwjaCOmJthVQWmghaugMLWMPvB8M6HXg6pdFc+yUblhPxYb1VKyxkwr8aUkGKekPkmVbwNytnRB/NwvZyCPpNbQOwunGDFLSF7PqbQsVS7LRHy1nrm0p83OqaNVZyF1Vy+HPh4k1FwBQFG/i0rcQl2IFLOTOMOA6tp9dbz9N1pwMUnIWMz/naZr6I0hIM7HxcDe6eAtFAFh4NMlEr3M76q21/6B49x5SxoiAWxEkjVZEowGRsb2KKIKAlC2iKPrsY67FysrZJlynOzHarBg/PYPLMJOFeQrJ1PspX1NK+ZqnWBjZyRvlzzHeckGJXis/xYYYEs1mEizZ2Kzy9JNYQOmfX2NP3WtUJ0aoWioxY5wEulg7e+reYU9dAQlheiKnwJaj3YxE300Rdu6JGaC18QyRM7JJjbYSN3WA402NgAnbqvXUvvkO9a8WMFkHaHX0Vhyig2QyioE5BSRO7aNjV7t68HGCotili3ItEQUBRGlqOnn0InUvn+OxDXdgmqH31htRkDJGqimKmqQm72ckGiAypVD64VdZiBw1cK9NUZB79pOSnkFKegZz859mY2Ofsgc/dHPpMkTFywsCRzn2JUtZ1Oppl0d1VQkLjX0c2LWfk8O+ra9lmN6PtlKzbSs122oo/+OzlL8OVLdznBjuKbYQN3KGpoqz9Ey+k4WPmokdOMleB0QVv0D5Y8nQuZ+trS5Fn7W86xwgwVJC/rJkoro/oKpF4ZbxGxTP/kSQ9yNemxwkt+Dm7IlBXis9xYWeK1KmyIFQajz7GDX5uTMxnmukUP7RU9IzKDzQR2RSNk+oxf8z7Wz8VzcjZitVZXl+CnMy0wyDnGh8jqq3d/Je/4haMJZlHKJ3QE/cTDOnHY04HI04HN1IK/Aa2r7QkfKQhcjebhw0cuqCiczcO+l1bscB5N5lQtffydqKWhxNXVwYHRtjV9NJXHFpFCbdTMf7G+kdc3nxGxT1jl4Ux2ypViNxyTfz6Oo7GBl2k7bYwKzcW4hNDkcQPHVF0nvOynx5nIdTDPQea6BVYW1t6KQ33EzWrxXGH0jvS8+y0eEiKq+M+k/acLa0cSwvhpEBFxdopOMLHam/bcZ5pJnaHCNXvS0PceLcMFG23Thb9lG7rI+1mxroibdT3yLpnW2vU5YmqatauyFcz6muGqCdpn9fxmgY4Lg8Fb3xfieuqVb2HmnGuaOIxGDvQNCwndZ+E1Fh3RyuVtgV+D0lftBQiVZx+rvub/dxsK6X70ZE7kkz8I/qr5hsCuP82WGMplBGR2BZyXT++Zd+fpp7GxG3BrO76mvvifErTqt6iP87CZlWYnUuOg60+zyNCZlWpl3ppOno9aZDABOp85Ix6gc57fiAE2r39xFtITdZT8817UyU7tjNfFc5Wb9v8PF48BuUnNte8jmSn2wKZ/kzZiabwnAeHsCx9dw1R/crnotlyh2hnPlsiAPbXIwMid72mzsWqIf4UZK6ooSHk5LJeCCC5qcWs9pPPWG8Y5bp+nnS+Yr8d2hwlLam87j6rvLN18Nc6BlLfOSQBodoadk7QPv+bxgd8Z2yPj7/ls/9j5Vp85bz8E+ga+crFDecU7u9+M2UjFteUExf47/E8rz0UtuUem1QEFu6lGvdANfDb6EfHr00tqP3eW+ifHcyto9xq87KlPr/jHyj7j7AdfAblLPD+xhxX/aeXSnfm3h26crlr6A6K/Os1K6MXqTt/DZ19wGug9/pK8CNxW+mBLixBIIyAQkEZQISCMoE5L+Na/1JizQmqAAAAABJRU5ErkJggg==;" parent="ZBbDV7YV4FOcDgq-P88l-4" vertex="1">
          <mxGeometry x="745" y="65" width="101" height="31" as="geometry" />
        </mxCell>
        <mxCell id="ZBbDV7YV4FOcDgq-P88l-121" value="" style="shape=image;verticalLabelPosition=bottom;labelBackgroundColor=default;verticalAlign=top;aspect=fixed;imageAspect=0;image=data:image/png,iVBORw0KGgoAAAANSUhEUgAAAEYAAAAbCAYAAADBPvmtAAAAAXNSR0IArs4c6QAAAARnQU1BAACxjwv8YQUAAAAJcEhZcwAAEnQAABJ0Ad5mH3gAAAaISURBVFhH7Zl/TJT3Hcdf3+fOOw64E+THBnhNGQ6FbdojWjHADQXs2WuMpXW20zarS1Y1ndZpu7Vq0rU1y0pdS3R2bVI0mVSppkl/2KhgaznNkJJhmaVxkW5rKTpP0OMqcgf3fPfHc3fcPcCCS5eMhVfyTZ77fL7f55M8z+f7/ny+z4lMe75kilEoesMUGlMPZhymHsw4iEx7vlyee5PHHf3MsIQQikRRJEIBISSKQoxNsysi5lqR0Xl9gwo7T6VzqMOmjzPpUAA2zvWTYpJIKUAKpBoeUjdUAVG7MmrODIvK9sW9+hiTEgXANk1FVQkPgaoKpApSFZotBGpIs0fmaX6dPQSpCSF9jEmJyLTny9b7rmhbI2brJDruJ/HOtQgBIEFA8PybDJ17PTxPt50UiRDa9cyaPH2cSYcCkYyIZIw2DBlzCH5+Gn/TTm58sJOB5hexOJ9GCkvcvPiM0n7/P6AAMTqhjGiJVJBSAgpDV7oI/PUkgc63MRX9NEZzlBjNGdGlURSvZttz66jW278RVvLKUQ9HntLbx2bbAQ8nXl6pN49Cy5iwnsgYjQn842NM3ykj+a5fY7v390gVBjy1JBQ/hoopTm/0mjOKvBLucS/Gobd/I5gwJ5sxm/X2sUlINGO1mPTmUcRnTLgaIQUDnx7nyl433j2VGFLsGLMcDF/vZujvHhLmrYmpSApSja9Qt4R9PlVuF263C2eh3gkUluB2u3A7Z8f9rlqQrZ9JgXPs++QsWDzOmmwWVmprovcPIzLt+bJ52dWo6Mb1KQaBdcEDEBokcd4KrtWvYVrmLFIfPkzfbgeC0Jh9zqw9t8cFYfVe/rQljaaiVeyItT/wEh89Ph/bQC9e0shJCXJ2VwVr6+G5t1qpTvPTbzCRAJgSg3x1CTKmm8BoxmTqpfmZZax/ZzV1H23CgR8MYZ/SS3PtMtbXw8LtDfyhOhcGAkAQjFYGP6ll0aNBXmncSLEliNcHGRlWBttqWbShHkYyJlZbRt58UtEqUqt/R7CnE+O3CjFkzGHYe5GhS+cxf29ljDaNZBzqLWTMoc38sLgMx5IVLF2ymcZLVgpKRvZ/f1c995eW4SjVfNbuOhylZTiKaznrT2Nm0citvM0bwr4VvNGVhvO+7eSwlo2uXLxNmzVf6UM0/jOy4jDrq8pwlFaw1F3BulM92OaU8OOwN6ox2hDR6iQxYit/jCv71mCt2Er/h7Ukl29FVQX+pt+Q6NyKlIquKmm6M3Gyca9/lroDDRx5dSUZJrS3HmEowFcAtOEPjJjHIhC6EL7qYf/FHkjLpsp+OxmJfro/ORP1BWLarBzXOl549Y+8e2AvD2aawQCR6NpZSdUqTOzbT16wioHOkwx0foghKZ3A31ox55WhTL+NocufEfL1YMq/W9OUuMyZ+PErZ8tvef6RudBxnH1nr+rd/13sm6h9Zi130MG7B9vw6ty6jAkPaSCl4udca9qDqsLNrhbMsyvxNe0iuXwLqgr+D2pIKv9lfP8T7ocmSlV+NqZLHex4oY6jjX/BO6yfMXFsyS5yACjhiaJsgl9eYP+XF+j2WylwrtZ8dhdWS3iBczY5ph7OPV/Da0ePcU73XsaoSgq2hau4cb6JYX8fwmjBuughvm59E39LPZbCu1CSswh83oIMBUl79CSJpb+YQFXKpfrPrXwaHQ3kNXdwNcvFe6c9tB/cRKFRv2bimArWcaTFQ3vrS1SZOnjjtVqgnh11bQQdmzjR4qH9cEyM+jOc683GfdhD++kGniyIv5/ItOfLE04fiiF8JDAayHv2FF/sWoH6tZcZlT9jWvpt9L31NEKRpFRuxDD92/je+RXG1CwsBUtJmFWOr+Fh7USuSL6/b2Z8lH+HfT5Vc810Hz3DZ3rfrWKfT1Wun8bmiN5EmI2z0kpXU1tYsyJks7ByLuaeYzR3xjm0B3O8rD9abmc4H2T6ncvpPbYboUiyHtlNd40L1X8ZISQGSxIzt31Mb8MGCAUwZeZh/m45vkM/CZdryQ/2a0k9mYnXmJBASUpFTEsgffkTpN/zJL4zBwn2XY5qyfDNG1w/XoNtyRZsS5/CcsePGLzo+Y805n8ZkWnPl+8v8o/ZqI36UCUkikGzx52sdfPmHdB3mJMPBeB6IPbcI1BDke8x+ooV0+dEz1bxo3fAoI8xKVEA6r5IwBeM72PiqswYfU5sFdNO4oJrNw283D75P2sS2Up64xRT/xKMy9SDGYd/AWzfWhjZunsTAAAAAElFTkSuQmCC;" parent="ZBbDV7YV4FOcDgq-P88l-4" vertex="1">
          <mxGeometry x="1040.94" y="67.5" width="67.41" height="26" as="geometry" />
        </mxCell>
        <mxCell id="ZBbDV7YV4FOcDgq-P88l-122" value="" style="group" parent="ZBbDV7YV4FOcDgq-P88l-4" vertex="1" connectable="0">
          <mxGeometry x="1000" y="290" width="155.51" height="50" as="geometry" />
        </mxCell>
        <mxCell id="ZBbDV7YV4FOcDgq-P88l-123" value="" style="rounded=1;whiteSpace=wrap;html=1;" parent="ZBbDV7YV4FOcDgq-P88l-122" vertex="1">
          <mxGeometry width="151" height="50" as="geometry" />
        </mxCell>
        <mxCell id="ZBbDV7YV4FOcDgq-P88l-124" value="&lt;div style=&quot;text-align: start;&quot;&gt;&lt;br&gt;&lt;/div&gt;" style="text;html=1;align=center;verticalAlign=middle;resizable=0;points=[];autosize=1;strokeColor=none;fillColor=none;" parent="ZBbDV7YV4FOcDgq-P88l-122" vertex="1">
          <mxGeometry x="65.50999999999999" y="10" width="20" height="30" as="geometry" />
        </mxCell>
        <mxCell id="ZBbDV7YV4FOcDgq-P88l-139" value="&lt;b style=&quot;color: rgb(15, 20, 26); font-family: &amp;quot;Amazon Ember&amp;quot;, &amp;quot;Helvetica Neue&amp;quot;, Roboto, Arial, sans-serif; font-size: 10px; letter-spacing: -0.3px; text-align: start; text-wrap: wrap;&quot;&gt;PRAGMA_LambdaBackMock&lt;/b&gt;" style="text;html=1;align=center;verticalAlign=middle;resizable=0;points=[];autosize=1;strokeColor=none;fillColor=none;" parent="ZBbDV7YV4FOcDgq-P88l-122" vertex="1">
          <mxGeometry x="-4.5" y="10" width="160" height="30" as="geometry" />
        </mxCell>
        <mxCell id="ZBbDV7YV4FOcDgq-P88l-63" value="&lt;div style=&quot;text-align: start;&quot;&gt;&lt;font face=&quot;Amazon Ember, Helvetica Neue, Roboto, Arial, sans-serif&quot; color=&quot;#0f141a&quot;&gt;&lt;span style=&quot;font-size: 14px; letter-spacing: -0.3px; text-wrap: wrap; background-color: rgb(255, 255, 255);&quot;&gt;&lt;b&gt;BACKEND&lt;/b&gt;&lt;/span&gt;&lt;/font&gt;&lt;/div&gt;" style="text;html=1;align=center;verticalAlign=middle;resizable=0;points=[];autosize=1;strokeColor=none;fillColor=none;" parent="ZBbDV7YV4FOcDgq-P88l-4" vertex="1">
          <mxGeometry x="895" y="35" width="90" height="30" as="geometry" />
        </mxCell>
        <mxCell id="ZBbDV7YV4FOcDgq-P88l-148" value="" style="rounded=1;whiteSpace=wrap;html=1;" parent="ZBbDV7YV4FOcDgq-P88l-4" vertex="1">
          <mxGeometry x="380" y="625" width="210" height="190" as="geometry" />
        </mxCell>
        <mxCell id="ZBbDV7YV4FOcDgq-P88l-147" value="" style="shape=image;verticalLabelPosition=bottom;labelBackgroundColor=default;verticalAlign=top;aspect=fixed;imageAspect=0;image=data:image/png,iVBORw0KGgoAAAANSUhEUgAAAGYAAAAfCAYAAAAV8rhrAAAAAXNSR0IArs4c6QAAAARnQU1BAACxjwv8YQUAAAAJcEhZcwAAEnQAABJ0Ad5mH3gAAAg6SURBVGhD7Zh9UFTXGYefvcIugguaBaq7kIpUt9DRQApiiqy11RG7o02taCudkVqjGJuoaTHNgB0rqbY6qdi0fmSmRBtholKHQWkZMToBrB9BF2vBYlRMlLXKly5+ge69/WPvLruX5UraTMMf+8ycubznPfecO7znd953jyY6doJEgCGHoOwIMDQIBGaIEgjMECUQmCFKIDBDFI1aVTY72MTK4RMYFRSCIGgQNAKCILj+FgQEjfx8it0l9rDx32d5v/OScokAA6CqmOXarxCuCUYSJSRRQpQkJElE9LF9n/7aqGE68sekKKcPoIJqYPQE4RRFTxNFEacoyU+3LSI6RZxOlz1QGyloldMHUEE1MJIoutQiK8KlHLHPVjSPcpSKku0Ag0c1MN5q8W6CcRTP/HIBUduXE756DkJcdD/l+LMDDB7VwPQppU85WrMJ4zsruXfEhn3ZdhzvHSc8dxYh35701JyjRsLcXAoLN7C5cAOFP51LWizk763lSFGWcuj/xg+2cqTuPfLJZNX6DeRlGZUjfEhbnMfmtdkkKR2fmSx2VNZS9oay3z+qgfGXVyLXzKX1tWK6a5oQRZGem13cztvDiMXfJGr3K4zctgQpJNhvzvFPOoX7aylbv4QZKWYSzGYsWUvISYeQUB364Z9zbhqmQx+qJYR24lIzWWSd63GlbS6n8VwtJSvcPSn8cEEWMxP1NHhG9Sfn7b8NYgNp0Y3QodMp+/2jGhhJlPODJLp2fHAQwaNH8fDCNSRJVpEoIT5+Qtvrf+bWS3/k/l9OMWLpTCSNZlA5Zl5RAfOetXNw9WRemL2QOQsWMm3ai6x4XznSRYIlE6s1k5mp6jvdFzMWayZWazoJnr56qj/uQBs3iRy5xxJrhCc6xk10/5MziR/TQ9PpnS4zMR2rNROrdTppse55IN5k8LuB3N9qSVQ43PNYzApHH0HKDm+coogESJKGoMgI4otfpWNfLU7RiYSApAEJCd1z8YQkxyHevMODs5fRJo3FsOcVOnN34nzQiyBolFPLZDLzawYc5/eyrkbpU5LCql2FLEseQW8voNXhqN/GopdLaM3ezsmfGTj6/ELWAfjY2eyoXoUlosf1nhO02AGo/KiFAkscaVbYXZlNgrGb07Z20r6cQhoHOL1iLDFPrlG6A3hjH7bvGnnU1UFvqJFIXQsHV5cRue5VpkSBNiYXW10uVyozmL8pncL9v2HeWFxrds9i2+x6ACLTyjk5w0AIoA2FH5csZP5bru/xRl0xXhVX9JIZ3PrTEdrePepRiiSJROdnEZGVzuNP2ggaG0100U+4W3yMB1U2Qr6X5pNz+mNAp4Xu28eVjv68lEtOag/VP88geWoGyW+egCk/oqDvJPJL2sYsLMP/wTvfl98rvoDD7Sw5wcVuAzGpRrCmED/czsUKO+1RRixATlIc2hvNlAJsWkjylAxemP0i06YV0/AkjqQZB1hhzeDwDXDYdpI8NYP5myBtYx7zxtopzZHXnL2G3fKSvY07mT81g+Spa6i+qcM0YbrnW71RDYzTKVdWoogQEcaDj+0+OSdsRhLOh720/mIPjg/O07GrirbfHmTka3O4X9eEJiLUpzobEN3TjyXTs5Fou+00uJVVUc+VbgMxzysGKkgw6OH2NbZdlzueeHtLON/SwzhzFqZUI5E3WyitrOfKQyMJi1NIitHTermKVgDMLFq7lZL9+yh520w4A583CQY93LjAr5uUHnDcc89XT3eP0tuHamC8d3vXBw2MXjqLsMkTCJs8niCTgbDU8TiqG7yqN4lH51vQmk30XrJzp+iQj+r604zjHphip2NSuv5PbLtwDYxm8sYaaW/5O62UcNGuJ2ZiFvFj7DQddB1B84qKyLdG0lpTRmVzr3Kazx3VwHiqMqdIx1/r6ay2yYGZQJDJQG/bXYZFR/j8xhGDBCS3LSvF7etPPVuONdNrzmTz2rl9iTkxxZNcQ3R6AFo/aqFdH4dFLm9Ni9NJ0Hdw45z7pXAi5WMtYbSeELm3+mY7xKSw2dLfB8D+Zq7qJzLtq71csVUBUHPdjmnqNxjX0UL1Kdew5GcNOP5Vxdo/HKD0mB2Vzd5vzf8G1cD0VWUu5bSVn+TG1nJat5bjONFER1kdUctmoY2NdFVduiC+9KtFIAgIEaGy2kTPHP5ofet1tlS2M25+AWXnztB47gyNewvJSYfDjXa0k5Zwclc2VGzh3ZoekvPKsdXVcmTlRLpr9vJmhZwr7hiwFNRiO1VLcZrWk0da1/+eg9cMWIvOuHzfiuSR9wdcL6bhmg6tYOfiHlfX6Q9baNfqcFytp1IedvhcCyHJq7DV1WLbMZ0oZ98UtqsdhKeuwnaqlkMFrjVLL+lda9bV0nhmH/l9wweF6u1y6f0kn9tijUbDMEFAI/Q9w8YbiV2fjRCiJdj4DMNCdXSWfEjEd1JoXb4d8dYdzy1z6q0K5RI+JFgyGadtp+FovXwO+yExHWucnu6WKmp8znAzFmsc9Ot3YUqdTvz94359gyYxHauxR/37vIlNYaYZmgY73gvVwOy995zfa/yBbYERX48nZutSHp65hLPrPp2/q/D4J98+pFwiwACoHmXeOcZdnSlt31zipPvsZT59eQca/XC6DpzAKTrlcV7aD/BUVAPjyjGu22RRrrq8c453xeXdHvzzEz5dsYOeqzc91dpAv/wD+Ec1MHelXkQ5OJ4bY6/mV0lev3OcouRRVadTrY4JoEQ1MPtDb+Pgsed22K0Upe3z9Lpbc99Kd4k9bH/YrJw+gAqqyT/AF4eqYgJ8cQQCM0QJBGaIEgjMEOU/y4UEekwn7RsAAAAASUVORK5CYII=;" parent="ZBbDV7YV4FOcDgq-P88l-4" vertex="1">
          <mxGeometry x="434" y="633" width="102" height="31" as="geometry" />
        </mxCell>
        <mxCell id="ZBbDV7YV4FOcDgq-P88l-149" value="" style="rounded=1;whiteSpace=wrap;html=1;" parent="ZBbDV7YV4FOcDgq-P88l-4" vertex="1">
          <mxGeometry x="702.28" y="625" width="210" height="190" as="geometry" />
        </mxCell>
        <mxCell id="ZBbDV7YV4FOcDgq-P88l-150" value="" style="shape=image;verticalLabelPosition=bottom;labelBackgroundColor=default;verticalAlign=top;aspect=fixed;imageAspect=0;image=data:image/png,iVBORw0KGgoAAAANSUhEUgAAAGAAAAAgCAYAAADtwH1UAAAAAXNSR0IArs4c6QAAAARnQU1BAACxjwv8YQUAAAAJcEhZcwAAEnQAABJ0Ad5mH3gAAAhuSURBVGhD7Zl9UFTXFcB/+xZYvhZUlhgXgSCpKGmMJFiJiobGIMkidTBK48c0ZSZWM0mxNdokECdVNFaTGpM2ZPwjkg9wImoTIi1N0lgwGEAGEKtoVPADNsGAQUBhF/a9/vEesPt4FNpOQzqzv5k78+495967+869555zn+620KkSbsYMQd3g5rvFbYAxxm2AMcZtgDHGbYAxRqcVBY0zPcjE8MfxMIxHEAQQBHR6AZ3gVJzquLTr0Qk6dIKePns7V2p203LhsHoKNwqaO+C2kNXo9UYQRSRJBEkEUSmShCSKSKI0UBAlkJQiinJdFPHwGkf4vb9WD+/GCU0DCIK/8pJFJIeI6JCfRVFEdDiUdodcRKUM1GUdURSRRAd6z0D18G6c0HRBUTMPDLoepURG+PDDaT6ETjIQPtmT9g6JpmsOzjb0Uvtln6Zr6q9/kX+Pego3Cpo7QHI45FWvrOjVqRPY8ayZCYF6yqq62F/YTm19N37eEBXhMWQniC5FVA/vxgnNHTD1rnz5cNULCILAvtemkne4lc+Odw1Z4ePHe/Ja1kSuXXfg6yNws1viudc6XfQqCu5TT0HqU1uImyg/21pOUVpRxicnrGq17xdxK8m0RCE71U4ulB/nWFEZ9QMKKWRsjSVkWPlQNA1w57R3lWhGfoFv/zGKy012IsIMNH3Vy5WveuntgxN13Txwvz9nG3oprephyUIjXgaBQ592O7kgPZWHZqmnYOvhSlLHWWlotYGfiSmTjHScKeA3q3ZRqlb+vrDyDb7YcDf2C1Y6gABzBCYPK6U5T7LubSuQxUfVKZiuNtJqA8PECELsVexKf5Lcq+rBZDRd0GA0I0dANptI/qFr/Hz9Rd471MqJmi5qT9+ir1ckOcGIj0HuEx/rTUiwwI/u8nKKkoZ3QR3nC1i8PI3FlgdJfL6YzqnLyNoeq1bTJjSWhyxJWBb2rziF6LlYLElYLAnMDnUWAJiZvdBZ1l+fy3RNvSTmR7sIACuly9NYvDyNBfNWs+eMkflPbGHNgLyT+gOyPHFVAfWBsSz9mcsALnioGwBEhwOdJMkFsH5tY0fWHQgCXG6y4RChpbWPA0fa2ZvfxpwYX/5S0kV57S1WJAfyt/JuJNEBSEoZmebizRT9NIE19yzDsm4t2U+YKHlyCevLAdaS93k6hsIl1Md9QLLRSo9PEN6Al6+B1tJsFqwvhOfep+YnZnq+bcPua8ZkaOTw+jReiJRXLu3g7QV4GfC6YaXZK4hgvVxnVR7Jj+2hmRR2frgRyySw28HLK5OGPz/L4hfL1D8ZOMfevVU8+sYcFqyDvTlquYytW90yiPYOUMX1U8J9KDnezu9ev8q+/S28U/ANH/+9nbbrdvx9dVTU3OTHcb4kxfvxy+wW6s72uOYJo+SGzQ7+RoJzCilvMxOdquyGdbFEU8exncoZ0XKU9HnxxMyLZ2+dDVPYDLn9pTRi4uK5/+ElLFjwFrV9Ecxc2D96G8eekvvE7KvDHgS1q+R68l+teJmjeAiYvT0dS9A59i6VZYkHLzHlkbVkDtlNCuWd2DAQoJxnYGT208eo+fwYNYeWEXmpgH2vuHZxRtMAztGMJIpIkkTDpVsseTiIHS/cwY7nw3h8uQmDJ8TF+BFm9sSS4M/Tv7Vyuck2JE/49ykk94SVkJiVWICM2VHw5XH2KNKem60DB9sNm92pXxQrNu0m78D75L0eRQDOe9yG7Yzy2GGnBxs2xS83O2z9SkwPMsK1S+zpl+08R4OHmcj5Ayoj0Ent/m1kvbSNrDcLuWhaxqZXU9RKAwxjgMEMVxJFGhpvEeCvZ+vORhKXniRx+SkyMhvotYtM/4E33gYdz2Q309nRN5AFI0lIkpIljwozIQFGsJ4jF6jIKaM+cBrJKRnER3dR/sFb6g5DSH31VTItJppLD1J0ztkw/wWhXhjUbc6kBBFAG00nBptsrcUUFRVT9FY2R853YpqRxArnPk5oG0AV15snGTB4wsanw9j8TDgvvxjB77dEgOjg5RwrjZd7CPTTDeQOokPJmJVdNDJRrHj5DR6N6qTiiLLOr+ZRczGI6F8kMP2bOnIL1X2GEhMWRMfZYjb9oYD8z6wMruvR88lFK0y+m0zl8J2/ZgYhfVYuaoRmIUkZ5K2fS8CFMnKL1FIgNIno243Q0kiJWqagbQDVXY/BIPDA/CBudTs4c7aLgj9d45Oj13ksNZillgmsetRE0Dhh2Luj4QiYlcHp6kpOV7/LxnttlL+9mfS8fqmVbZ/VETDJTPPJAipcu2pypLoR75gM2f/mJBA8GturaN75JvlfmliRK/vxnEVG6g++ybaBMDKC1OpKTldX8vGWFCZbi9m1Idvp9xmZvUGWn/5wCw95VJGbs4vmAbkrmnlA6MTXXa4S3sudxZqnTnJnpJGZMwPx8dYjoeN8Yw/Vp26S+asw3jnYSsMVu5zACQKCfvAqo+5oonqK0ZGym5IsEx8vXe30AkYgei4Ws43aT6uG/dOjIWRWAjNvg9a6o1SMdu7/AG0DBO9xScQWLbqdtGWT+eCjr/mqxS6/WJ0OPz8P4ueMZ9w4TzK3Xx72WrquZJF6ihGQM8p7ZiQQ07aPmPSR/f//K5oGCJmwe8iVQ0SkP7H3TSAs1Jc7wn253t7L5as2zjd0U1nTiU5QXriT4RDkq4xTnz+inmIEVrLzvRSm3KzicPYu8v+HK3Cs0TbA+FdcVjI61xfb75pc6hqup1/vH2XJ6incKGgewo6+joHvAP/q/r9fNnj/r3w7UL4fSKJIX8+36uHdOKFpgI6eIhyOTiWaGYzr5czY9UuY1C9zujuSlCioz9bO11dy1cO7cULTBbn57tDcAW6+O9wGGGPcBhhj3AYYY9wGGGP+CTSGD33FPD7ZAAAAAElFTkSuQmCC;" parent="ZBbDV7YV4FOcDgq-P88l-4" vertex="1">
          <mxGeometry x="759.64" y="633" width="96" height="32" as="geometry" />
        </mxCell>
        <mxCell id="ZBbDV7YV4FOcDgq-P88l-151" value="" style="rounded=1;whiteSpace=wrap;html=1;" parent="ZBbDV7YV4FOcDgq-P88l-4" vertex="1">
          <mxGeometry x="1010" y="625" width="210" height="190" as="geometry" />
        </mxCell>
        <mxCell id="ZBbDV7YV4FOcDgq-P88l-153" value="" style="shape=image;verticalLabelPosition=bottom;labelBackgroundColor=default;verticalAlign=top;aspect=fixed;imageAspect=0;image=data:image/png,iVBORw0KGgoAAAANSUhEUgAAADkAAAAaCAYAAAANIPQdAAAAAXNSR0IArs4c6QAAAARnQU1BAACxjwv8YQUAAAAJcEhZcwAAEnQAABJ0Ad5mH3gAAASySURBVFhH5Zh9bBRFGMZ/u0d7bZECba14hIT2UIQYcsiZHhSIaAgkJTWBYGKIsa00FMKHCamx4cMEUJEPtQWDtoj8IYkxQaMJCcY/NDUUroVQIRQQKh8NH0lbQMB6PdkZ/7i9vZltS88YPQNPMre3z7w7e+8++8w7c0b+mCclDzhMN/Eg4qFI0lBf13np6azIyiDH48E0DQzT1I6moZ9rvMfAsPtvCsHbVzv5ovuWfrcUQVNymTeN4YCUUm/CblIiBuLto5SSkR4Pa3356tAphZZktgQhRKJZdlO5OO/mXP0jTEMdOqXQklQVUpWJN6Eo5xxVdV3X/V+gJRlXzlJUsfpR1HLz/VwnhFCHTim0iedHr9eZUB7fvJF0fyEyEgEDjNgHsZcw/j3BGRkZWJcu07t1G6ZpYpgGBW3t6r0gtIg1JT6uHNjK3iNxMkhZTSn+ru9Y13DIFVtA5/ebqG9M0ABFr1azwHeV/e/uI6x39Ysh6kns6RsYEvB6uV6znnsXLpD1TICsaSEiTWH+PHUqMavayZimSVrhWDLLyxwFDftxaPAXM69kPKfPKEmWLqJ8YTF53cM43nCIr7TYINnjejnQuJUrziAVrKxcSMA6SluSSeqeVDyHlEgpMDIzyd+2GYYOJe/9zZA2RPdo3J9W/JqER5PB/NlPkXf2BKeHB1lQ6e4F/HPZuChxOnNLKQF6iaoxg0BLUvWalBJhScz8R/njeCtd720n0noSY9QohCVICwTI2VXHyJ11DN/5IUIKpEz4WljJeLKCBZMfobVxMT+1wcSpFa7+CzSGoxS9tIEigDFVLJmWS2vTSSKuyPthQCWlBKRk1DsbyHw2iO+zejKmBMh9aw1SSqLt7dz+5FPuNOzmTv0epJCAXkcHReU0JnKW5l1QGz4LT8+i2hXSteUgpx+bxcqlPuavfpFA9w/U/ewKGgT67KrMnrEfLDCyMjkXeo6OV17j1+IXMIcNQwhhPxBB77l2IkeP2a+uPYY9Ew+G6ucnQcdFzpfMpeTyRdrFeIre8OlBHbXUNXYTmPcB5aF0wl+uT8qHKvqvk0rdc/PYansKC8iuWsyQgrGJvrg/lWsHxJhqivyQXjCHTTVr2FQzB78JE0IVjHaFNu44SDjdR96Zb1m3z9WZBPqtkzE/GQgp8eTmkLeiitzlVeQsW4KZMwJLCHrCLVwrX0JPyzHHw9J+G+Levh9GvzyJCdET1IZmMHm63RpOEB0bZFXIFdzxMRWzZzC1rFaZZZNHHyUTnhJIS3Jp6evcPdzM3cPN/B5u4eqK1Y5y+gpIOLNr3NsDI8iq4vFEf2miXqUbmmjr8REoDarsP4a2GPimp9epe+N2f8S17XVEz7dr9dA0E7sNtV56n/AzoqqSG2+udfjAtU79bimCluTXdyOYntjWafTq5WTPnI5hECvtdm2Pr3IADJuMHyNHmrmzZ6+T5OTrXfGhUwotyf23e/ruE5PYP/ZZAdn8lM4b+t1ShD6eVD2le9TFO/U00TSPJlMn/yNoSd4SUtttDNTcuw1nVla47nuWOnRKoSX5eZaX3xRFHWVcCqnK9qfoTUuwo+fvLLz+XWiefFDxUPxb91Ak+Rc6oZyYuwk5YQAAAABJRU5ErkJggg==;" parent="ZBbDV7YV4FOcDgq-P88l-4" vertex="1">
          <mxGeometry x="1079.6399999999999" y="633" width="57" height="26" as="geometry" />
        </mxCell>
        <mxCell id="ZBbDV7YV4FOcDgq-P88l-154" value="Registro Usuario para uso JWT" style="rounded=1;whiteSpace=wrap;html=1;" parent="ZBbDV7YV4FOcDgq-P88l-4" vertex="1">
          <mxGeometry x="80" y="780" width="151" height="50" as="geometry" />
        </mxCell>
        <mxCell id="ZBbDV7YV4FOcDgq-P88l-155" value="Monitoreo" style="rounded=1;whiteSpace=wrap;html=1;" parent="ZBbDV7YV4FOcDgq-P88l-4" vertex="1">
          <mxGeometry x="404.75" y="705" width="151" height="50" as="geometry" />
        </mxCell>
        <mxCell id="ZBbDV7YV4FOcDgq-P88l-156" value="Almacenamiento de la Data" style="rounded=1;whiteSpace=wrap;html=1;" parent="ZBbDV7YV4FOcDgq-P88l-4" vertex="1">
          <mxGeometry x="732.14" y="705" width="151" height="50" as="geometry" />
        </mxCell>
        <mxCell id="ZBbDV7YV4FOcDgq-P88l-157" value="Control de Politicas" style="rounded=1;whiteSpace=wrap;html=1;" parent="ZBbDV7YV4FOcDgq-P88l-4" vertex="1">
          <mxGeometry x="1039.5" y="705" width="151" height="50" as="geometry" />
        </mxCell>
        <mxCell id="xgrdJq6bS5s3zBbJ0A_u-1" style="edgeStyle=orthogonalEdgeStyle;rounded=0;orthogonalLoop=1;jettySize=auto;html=1;entryX=0;entryY=0.5;entryDx=0;entryDy=0;" edge="1" parent="ZBbDV7YV4FOcDgq-P88l-4" source="ZBbDV7YV4FOcDgq-P88l-41" target="ZBbDV7YV4FOcDgq-P88l-109">
          <mxGeometry relative="1" as="geometry" />
        </mxCell>
        <mxCell id="xgrdJq6bS5s3zBbJ0A_u-2" style="edgeStyle=orthogonalEdgeStyle;rounded=0;orthogonalLoop=1;jettySize=auto;html=1;entryX=0;entryY=0.5;entryDx=0;entryDy=0;" edge="1" parent="ZBbDV7YV4FOcDgq-P88l-4" source="ZBbDV7YV4FOcDgq-P88l-47" target="ZBbDV7YV4FOcDgq-P88l-113">
          <mxGeometry relative="1" as="geometry">
            <Array as="points">
              <mxPoint x="640" y="235" />
              <mxPoint x="640" y="350" />
            </Array>
          </mxGeometry>
        </mxCell>
        <mxCell id="xgrdJq6bS5s3zBbJ0A_u-3" style="edgeStyle=orthogonalEdgeStyle;rounded=0;orthogonalLoop=1;jettySize=auto;html=1;entryX=0;entryY=0.5;entryDx=0;entryDy=0;" edge="1" parent="ZBbDV7YV4FOcDgq-P88l-4" source="ZBbDV7YV4FOcDgq-P88l-50" target="ZBbDV7YV4FOcDgq-P88l-106">
          <mxGeometry relative="1" as="geometry">
            <Array as="points">
              <mxPoint x="630" y="315" />
              <mxPoint x="630" y="455" />
            </Array>
          </mxGeometry>
        </mxCell>
        <mxCell id="xgrdJq6bS5s3zBbJ0A_u-4" style="edgeStyle=orthogonalEdgeStyle;rounded=0;orthogonalLoop=1;jettySize=auto;html=1;entryX=0;entryY=0.5;entryDx=0;entryDy=0;" edge="1" parent="ZBbDV7YV4FOcDgq-P88l-4" source="ZBbDV7YV4FOcDgq-P88l-53" target="ZBbDV7YV4FOcDgq-P88l-107">
          <mxGeometry relative="1" as="geometry" />
        </mxCell>
        <mxCell id="xgrdJq6bS5s3zBbJ0A_u-5" style="edgeStyle=orthogonalEdgeStyle;rounded=0;orthogonalLoop=1;jettySize=auto;html=1;entryX=-0.007;entryY=0.667;entryDx=0;entryDy=0;entryPerimeter=0;" edge="1" parent="ZBbDV7YV4FOcDgq-P88l-4" source="ZBbDV7YV4FOcDgq-P88l-56" target="ZBbDV7YV4FOcDgq-P88l-116">
          <mxGeometry relative="1" as="geometry">
            <Array as="points">
              <mxPoint x="600" y="480" />
              <mxPoint x="600" y="530" />
            </Array>
          </mxGeometry>
        </mxCell>
        <mxCell id="ZBbDV7YV4FOcDgq-P88l-37" style="edgeStyle=orthogonalEdgeStyle;rounded=0;orthogonalLoop=1;jettySize=auto;html=1;entryX=0;entryY=0.5;entryDx=0;entryDy=0;" parent="ZBbDV7YV4FOcDgq-P88l-2" source="ZBbDV7YV4FOcDgq-P88l-3" target="ZBbDV7YV4FOcDgq-P88l-35" edge="1">
          <mxGeometry relative="1" as="geometry">
            <Array as="points">
              <mxPoint x="170" y="390" />
              <mxPoint x="170" y="675" />
            </Array>
          </mxGeometry>
        </mxCell>
        <mxCell id="ZBbDV7YV4FOcDgq-P88l-3" value="WEB / POSTMAN" style="shape=umlActor;verticalLabelPosition=bottom;verticalAlign=top;html=1;outlineConnect=0;" parent="ZBbDV7YV4FOcDgq-P88l-2" vertex="1">
          <mxGeometry x="80" y="360" width="30" height="60" as="geometry" />
        </mxCell>
        <mxCell id="ZBbDV7YV4FOcDgq-P88l-38" style="edgeStyle=orthogonalEdgeStyle;rounded=0;orthogonalLoop=1;jettySize=auto;html=1;" parent="ZBbDV7YV4FOcDgq-P88l-2" source="ZBbDV7YV4FOcDgq-P88l-3" edge="1">
          <mxGeometry relative="1" as="geometry">
            <mxPoint x="240" y="190" as="targetPoint" />
            <Array as="points">
              <mxPoint x="95" y="190" />
            </Array>
          </mxGeometry>
        </mxCell>
      </root>
    </mxGraphModel>
  </diagram>
</mxfile>
